<svg width="65" height="64" viewBox="0 0 65 64" fill="none" xmlns="http://www.w3.org/2000/svg">
<path d="M22.0662 61.0874C22.7712 61.0875 23.475 61.03 24.1706 60.9156C24.3986 60.8786 24.6254 60.8351 24.8508 60.785C26.1258 60.5033 27.3507 60.0298 28.4836 59.3806C31.8652 57.4492 34.5288 53.9234 35.9836 49.4525C36.4731 47.9388 36.8193 46.3825 37.0175 44.804C37.4996 44.8511 37.9861 44.8774 38.4773 44.8774C41.4563 44.8774 44.5857 44.016 47.6601 42.3342C51.6341 40.1604 55.153 36.8007 57.8362 32.6186C63.9008 23.1699 64.0667 11.9516 58.2316 5.94499C57.2302 4.91215 56.0619 4.05552 54.7757 3.41112C50.9063 1.46974 46.1428 1.53099 41.3632 3.58324C36.6537 5.60512 32.3426 9.39574 29.2237 14.256C28.3017 15.6916 27.4997 17.2009 26.826 18.7685C24.0931 16.7589 21.026 15.602 17.8825 15.5624C16.8981 15.5501 15.9156 15.6508 14.9542 15.8624C14.5126 15.9595 14.0766 16.0805 13.6481 16.2249C9.54259 17.5965 6.22459 21.0146 4.30546 25.8499C2.41421 30.6124 2.05746 36.3419 3.30059 41.9812C5.76034 53.1456 13.7506 61.0874 22.0662 61.0874ZM57.462 8.08887C59.4794 10.5802 60.5468 14.0545 60.4856 17.9947C60.4161 22.4842 58.8773 27.2947 56.1531 31.5386C53.6501 35.4397 50.3813 38.5661 46.7003 40.5797C43.5648 42.2949 40.277 43.0755 37.3253 42.8241C43.1397 38.2579 47.0548 31.6983 48.3141 24.4134C49.3203 18.6258 52.1237 13.3021 56.3266 9.19787L57.462 8.08887ZM52.9596 7.03737L54.4981 5.53524C54.6231 5.60887 54.7488 5.68449 54.8731 5.76362C55.2918 6.03251 55.6914 6.32997 56.0691 6.65387L54.9293 7.76637C50.4254 12.1643 47.4213 17.8691 46.3433 24.0711C45.2545 30.3701 42.0343 36.1037 37.2221 40.3115C37.1951 39.5025 37.1344 38.6882 37.04 37.8686C41.1745 33.5689 43.9284 28.1308 44.9476 22.2535C45.9422 16.4619 48.7472 11.1346 52.9596 7.03737ZM30.9066 15.3361C36.4388 6.71462 45.6636 2.26237 52.5521 4.64062L51.5625 5.60687C47.0486 9.99709 44.0428 15.7053 42.9771 21.9112C42.1168 26.8753 39.9277 31.5135 36.6425 35.333C36.5985 35.1102 36.5523 34.8878 36.5037 34.666C35.1781 28.6495 32.2215 23.516 28.4396 20.0899C29.113 18.4323 29.9389 16.8409 30.9066 15.3361ZM18.8441 19.2085L18.8598 17.621C22.0483 17.9502 25.2631 19.646 28.0117 22.4692C31.1436 25.6869 33.466 30.1714 34.5512 35.0965C35.593 39.826 35.4262 44.7047 34.0826 48.834C33.054 51.9941 31.3751 54.6109 29.2598 56.4009C30.1275 49.0589 28.2427 41.6559 23.9698 35.6226C20.6252 30.9088 18.8329 25.2697 18.8422 19.4899C18.8422 19.3966 18.8428 19.3045 18.8441 19.2085ZM14.9378 20.0694L14.9582 17.9194C15.0993 17.8817 15.2412 17.8471 15.3838 17.8156C15.8703 17.7088 16.3635 17.6355 16.86 17.5962L16.8442 19.1865C16.8428 19.2882 16.8428 19.3885 16.8428 19.4902C16.8328 25.6838 18.7533 31.7265 22.3373 36.7777C26.3782 42.483 28.129 49.4977 27.2432 56.4326L27.0603 57.8777C26.4594 58.1877 25.831 58.4412 25.1832 58.6349L25.3207 57.545C25.4787 56.2947 25.558 55.0358 25.5582 53.7756C25.569 47.5806 23.6484 41.5363 20.0636 36.4839C16.6618 31.6922 14.8676 25.9453 14.9378 20.0694ZM12.9503 18.667L12.9372 20.0499C12.8621 26.3462 14.7854 32.5042 18.4306 37.6386C21.7759 42.3535 23.5684 47.9938 23.5586 53.7749C23.5583 54.9511 23.4841 56.1262 23.3366 57.2931L23.1161 59.0365C19.5565 59.374 15.8543 57.9497 12.6117 54.974C9.05484 51.7096 6.44184 46.9426 5.25396 41.551C3.04859 31.5476 6.40309 21.8705 12.9503 18.667Z" fill="#161915"/>
<path d="M36.8401 14.4652C37.0928 14.4655 37.3362 14.3698 37.521 14.1975C37.9422 13.8058 38.3795 13.4317 38.8317 13.0762C38.935 12.9951 39.0212 12.8944 39.0856 12.7799C39.1499 12.6654 39.1911 12.5394 39.2067 12.409C39.2223 12.2786 39.2121 12.1464 39.1767 12.02C39.1412 11.8935 39.0812 11.7753 39 11.672C38.9189 11.5688 38.8182 11.4825 38.7037 11.4182C38.5892 11.3539 38.4632 11.3127 38.3328 11.2971C38.2024 11.2814 38.0702 11.2916 37.9438 11.3271C37.8173 11.3626 37.6991 11.4226 37.5959 11.5037C37.1 11.8935 36.6204 12.3036 36.1584 12.733C36.0113 12.8698 35.9088 13.0477 35.8643 13.2436C35.8197 13.4395 35.8353 13.6443 35.9088 13.8312C35.9823 14.0182 36.1104 14.1786 36.2764 14.2917C36.4425 14.4048 36.6392 14.4653 36.8401 14.4652ZM31.7302 20.6057C31.8478 20.6643 31.9757 20.6991 32.1067 20.7082C32.2377 20.7172 32.3693 20.7004 32.4938 20.6586C32.6183 20.6168 32.7333 20.5509 32.8323 20.4646C32.9313 20.3783 33.0123 20.2733 33.0707 20.1557C33.708 18.8749 34.4756 17.6632 35.3614 16.5398C35.4446 16.437 35.5066 16.3186 35.5437 16.1915C35.5809 16.0645 35.5924 15.9314 35.5777 15.7998C35.563 15.6683 35.5224 15.541 35.4581 15.4253C35.3939 15.3096 35.3073 15.2078 35.2034 15.1258C35.0994 15.0438 34.9803 14.9833 34.8528 14.9477C34.7254 14.9121 34.5921 14.9022 34.4607 14.9185C34.3294 14.9348 34.2026 14.977 34.0877 15.0427C33.9728 15.1084 33.8721 15.1962 33.7914 15.3011C32.82 16.5326 31.9785 17.861 31.28 19.2653C31.162 19.5028 31.1431 19.7774 31.2276 20.0288C31.312 20.2801 31.4928 20.4877 31.7302 20.6057ZM12.384 51.6553C12.5564 51.8569 12.8018 51.9818 13.0662 52.0025C13.3307 52.0231 13.5925 51.9379 13.7941 51.7655C13.9957 51.5931 14.1206 51.3477 14.1412 51.0832C14.1619 50.8188 14.0766 50.5569 13.9042 50.3554C13.5304 49.9181 13.1749 49.4655 12.8386 48.9988C12.6836 48.7836 12.4494 48.6388 12.1876 48.5963C11.9258 48.5537 11.6579 48.6169 11.4427 48.7719C11.2275 48.9269 11.0826 49.1611 11.0401 49.4229C10.9975 49.6847 11.0607 49.9526 11.2157 50.1679C11.5847 50.6794 11.9745 51.1756 12.384 51.6553ZM14.8511 54.1281C16.0409 55.1501 17.3331 56.0465 18.707 56.8031C18.8221 56.8669 18.9486 56.9074 19.0793 56.9222C19.2101 56.937 19.3425 56.9259 19.4689 56.8894C19.5953 56.853 19.7133 56.7919 19.8161 56.7098C19.9189 56.6276 20.0045 56.526 20.068 56.4107C20.1314 56.2955 20.1715 56.1688 20.1859 56.038C20.2003 55.9072 20.1887 55.7748 20.1519 55.6485C20.1151 55.5222 20.0536 55.4044 19.9712 55.3019C19.8887 55.1993 19.7868 55.1141 19.6714 55.051C18.4182 54.3609 17.2396 53.5434 16.1544 52.6114C15.9529 52.441 15.6922 52.3572 15.4292 52.3782C15.1662 52.3992 14.9221 52.5232 14.7502 52.7234C14.5783 52.9235 14.4924 53.1835 14.5113 53.4466C14.5302 53.7098 14.6523 53.9546 14.8511 54.1281Z" fill="#161915"/>
</svg>
