<svg width="65" height="64" viewBox="0 0 65 64" fill="none" xmlns="http://www.w3.org/2000/svg">
<path d="M45.9587 35H35.7347L37.3347 19H37.4297C38.5327 19 39.4297 18.103 39.4297 17V15C39.4297 13.897 38.5327 13 37.4297 13H24.2567L25.0567 7H39.4297V1H24.1807C22.9699 1.00323 21.8011 1.44442 20.8901 2.24213C19.9792 3.03984 19.3877 4.14018 19.2247 5.34L18.2037 13H3.42969C2.32669 13 1.42969 13.897 1.42969 15V17C1.42969 18.103 2.32669 19 3.42969 19H3.52469L7.07469 54.498C7.19469 55.7331 7.77109 56.8789 8.69116 57.7115C9.61124 58.5441 10.8088 59.0036 12.0497 59H16.5807L15.4297 60.692V63H63.4297V60.692L45.9587 35ZM43.5207 37L26.9057 61H23.3387L39.9537 37H43.5207ZM34.8997 23.248C34.0858 23.0894 33.2589 23.0064 32.4297 23C29.0197 23 25.6447 24.332 22.5597 25.729L23.4567 19H35.3247L34.8997 23.248ZM16.1387 28.488C15.1637 28.802 14.2497 29 13.4297 29C9.09269 29 6.42969 27.835 6.42969 27C6.42969 26.165 9.09269 25 13.4297 25C14.3297 25 15.3777 25.16 16.5427 25.462L16.1387 28.488ZM19.4217 19H21.4397L20.4107 26.717C19.6797 27.056 18.9627 27.381 18.2647 27.678L19.4217 19ZM21.2077 5.604C21.3055 4.88421 21.6603 4.22409 22.2067 3.74548C22.7532 3.26686 23.4543 3.00208 24.1807 3H37.4297V5H25.0567C24.0587 5 23.2067 5.746 23.0747 6.736L22.2387 13H20.2207L21.2077 5.604ZM3.42969 15H37.4297V17H3.42969V15ZM17.4037 19L16.8087 23.463C15.5687 23.158 14.4347 23 13.4297 23C10.7837 23 7.86169 23.428 6.08469 24.501L5.53469 19H17.4037ZM12.0497 57C11.3052 57.0022 10.5866 56.7266 10.0345 56.2271C9.48248 55.7276 9.13665 55.04 9.06469 54.299L6.61269 29.783C8.40769 30.647 11.0317 31 13.4297 31C15.9407 31 18.7807 29.681 21.7877 28.284C25.2627 26.669 28.8567 25 32.4297 25C33.1367 25 33.9047 25.107 34.6977 25.267L33.7247 35H32.9007L17.9407 57H12.0497ZM33.9587 37H37.5207L20.9057 61H17.6397L33.9587 37ZM29.3387 61L45.4227 37.768L61.2207 61H29.3387Z" fill="#161915"/>
<path d="M51.4297 52.9997H53.4297V54.9997H51.4297V52.9997ZM47.4297 52.9997H49.4297V54.9997H47.4297V52.9997ZM43.4297 52.9997H45.4297V54.9997H43.4297V52.9997ZM51.4297 56.9997H53.4297V58.9997H51.4297V56.9997ZM47.4297 56.9997H49.4297V58.9997H47.4297V56.9997ZM43.4297 56.9997H45.4297V58.9997H43.4297V56.9997ZM20.4297 43.9997C20.4297 43.0887 20.0747 42.2307 19.4297 41.5857L17.8447 39.9997C16.5557 38.7107 14.3037 38.7107 13.0157 39.9997L11.4297 41.5857C10.7847 42.2317 10.4297 43.0887 10.4297 43.9997C10.4297 44.9107 10.7847 45.7687 11.4297 46.4137L12.0157 46.9997L11.4297 47.5857C10.7847 48.2317 10.4297 49.0887 10.4297 49.9997C10.4297 50.9107 10.7847 51.7687 11.4297 52.4137L13.0147 53.9997C13.6597 54.6447 14.5167 54.9997 15.4297 54.9997C16.3427 54.9997 17.1997 54.6447 17.8437 53.9997L19.4297 52.4137C20.0747 51.7677 20.4297 50.9107 20.4297 49.9997C20.4297 49.0887 20.0747 48.2307 19.4297 47.5857L18.8437 46.9997L19.4297 46.4137C20.0747 45.7687 20.4297 44.9107 20.4297 43.9997ZM12.8437 42.9997L14.4297 41.4137C14.6967 41.1457 15.0517 40.9997 15.4297 40.9997C15.8077 40.9997 16.1627 41.1457 16.4297 41.4137L18.0147 42.9997C18.2827 43.2677 18.4297 43.6217 18.4297 43.9997C18.4297 44.3777 18.2827 44.7317 18.0157 44.9997L16.4297 46.5857C15.8967 47.1207 14.9647 47.1207 14.4297 46.5857L12.8447 44.9997C12.5767 44.7317 12.4297 44.3777 12.4297 43.9997C12.4297 43.6217 12.5767 43.2677 12.8437 42.9997ZM18.0157 50.9997L16.4297 52.5857C15.8967 53.1207 14.9647 53.1207 14.4297 52.5857L12.8447 50.9997C12.5767 50.7317 12.4297 50.3777 12.4297 49.9997C12.4297 49.6217 12.5767 49.2677 12.8437 48.9997L13.4697 48.3737C14.0423 48.7806 14.7273 48.9991 15.4297 48.9991C16.1321 48.9991 16.8171 48.7806 17.3897 48.3737L18.0147 48.9997C18.2827 49.2677 18.4297 49.6217 18.4297 49.9997C18.4297 50.3777 18.2827 50.7317 18.0157 50.9997ZM26.8447 31.9997C25.5557 30.7107 23.3037 30.7107 22.0157 31.9997L20.4297 33.5857C19.7847 34.2317 19.4297 35.0887 19.4297 35.9997C19.4297 36.9107 19.7847 37.7687 20.4297 38.4137L22.0147 39.9997C22.6597 40.6447 23.5167 40.9997 24.4297 40.9997C25.3427 40.9997 26.1997 40.6447 26.8437 39.9997L28.4297 38.4137C29.0747 37.7677 29.4297 36.9107 29.4297 35.9997C29.4297 35.0887 29.0747 34.2307 28.4297 33.5857L26.8447 31.9997ZM27.0157 36.9997L25.4297 38.5857C24.8967 39.1207 23.9647 39.1207 23.4297 38.5857L21.8437 36.9997C21.7121 36.8686 21.6078 36.7127 21.5368 36.5411C21.4657 36.3695 21.4293 36.1855 21.4297 35.9997C21.4297 35.6217 21.5767 35.2677 21.8437 34.9997L23.4297 33.4137C23.9627 32.8787 24.8947 32.8787 25.4297 33.4137L27.0147 34.9997C27.2827 35.2677 27.4297 35.6217 27.4297 35.9997C27.4297 36.3777 27.2827 36.7317 27.0157 36.9997Z" fill="#161915"/>
</svg>
