<svg width="65" height="64" viewBox="0 0 65 64" fill="none" xmlns="http://www.w3.org/2000/svg">
<path d="M31.2871 8.99997C32.0825 8.99908 32.845 8.68272 33.4074 8.12031C33.9698 7.55789 34.2862 6.79535 34.2871 5.99997H32.2871C32.2871 6.26519 32.1817 6.51954 31.9942 6.70708C31.8066 6.89462 31.5523 6.99997 31.2871 6.99997C31.0219 6.99997 30.7675 6.89462 30.58 6.70708C30.3924 6.51954 30.2871 6.26519 30.2871 5.99997H28.2871C28.288 6.79535 28.6043 7.55789 29.1667 8.12031C29.7292 8.68272 30.4917 8.99908 31.2871 8.99997Z" fill="#161915"/>
<path d="M9.94861 55.307C14.8532 59.623 21.3659 62 28.2871 62C31.1759 62.0044 34.0492 61.5777 36.8121 60.7341C38.6094 61.1359 40.4455 61.3387 42.2871 61.3387H42.3011C44.3112 62.1064 46.5146 62.2086 48.5871 61.6305C50.0911 62.0518 51.673 62.115 53.2058 61.8151C54.7387 61.5152 56.18 60.8604 57.4143 59.9032C58.6486 58.9461 59.6416 57.7132 60.3137 56.3032C60.9858 54.8933 61.3184 53.3455 61.2847 51.784C61.1837 47.0055 57.6621 43.0258 53.1105 42.1715C53.3372 41.4353 53.3458 40.6493 53.1355 39.9083C54.0278 39.7142 54.8268 39.2206 55.3997 38.5096C55.9727 37.7986 56.2851 36.9129 56.2851 35.9998C56.2851 35.0866 55.9727 34.201 55.3997 33.4899C54.8268 32.7789 54.0278 32.2853 53.1355 32.0912C53.3833 31.2185 53.3269 30.2876 52.9757 29.4511C52.6245 28.6147 51.9993 27.9226 51.2028 27.4885C50.4062 27.0543 49.4858 26.9039 48.5925 27.062C47.6992 27.2201 46.8862 27.6773 46.2871 28.3585C45.7682 27.7686 45.0874 27.3443 44.3292 27.1385C44.523 25.1485 45.4048 23.2884 46.8226 21.8786L46.9942 21.7071L45.58 20.2928L45.4085 20.4645C44.451 21.4198 43.6843 22.5489 43.1496 23.7913C43.4236 21.9982 43.2862 20.1663 42.7477 18.4341C42.2091 16.7019 41.2837 15.115 40.0412 13.7933C38.868 12.527 38.2376 10.8513 38.2855 9.12571C38.2884 8.95908 38.2855 8.78971 38.2767 8.62058C38.1724 6.88177 37.4276 5.24326 36.1861 4.02139C34.9445 2.79951 33.2944 2.08092 31.5541 2.00433C30.613 1.96852 29.6744 2.12294 28.7944 2.45837C27.9144 2.7938 27.1111 3.30333 26.4327 3.95646C25.7542 4.6096 25.2145 5.39291 24.8458 6.25952C24.4771 7.12612 24.2871 8.0582 24.2871 8.99996C24.2871 9.04308 24.2871 9.08621 24.2886 9.12933C24.3076 10.8952 23.6461 12.6006 22.4414 13.8918C20.8642 15.6155 19.8232 17.7612 19.4454 20.0668C19.0609 20.0224 18.6742 20.0001 18.2871 20C16.3094 20 14.376 20.5866 12.7316 21.6854C11.0872 22.7842 9.80552 24.346 9.04868 26.1732C8.29183 28.0004 8.0938 30.011 8.47962 31.9508C8.86544 33.8905 9.81779 35.6723 11.2162 37.0708C11.5511 37.4052 11.9089 37.7156 12.2871 38H3.28711C3.02189 38 2.76754 38.1053 2.58 38.2929C2.39247 38.4804 2.28711 38.7347 2.28711 39C2.28711 45.1678 5.00811 50.9591 9.94861 55.307ZM37.0004 58.7278L36.977 58.7227C32.368 57.6272 28.2093 55.136 25.0687 51.5891C21.9281 48.0423 19.9586 43.6127 19.429 38.905C19.429 38.8997 19.4279 38.8945 19.4274 38.8892C19.3341 38.0422 19.2873 37.1908 19.2871 36.3387C19.2864 34.6172 19.478 32.9011 19.8582 31.2221C20.662 31.2996 21.4757 31.3387 22.2871 31.3387C22.3476 31.3387 22.4067 31.3372 22.4669 31.3367C22.6833 33.1518 23.099 34.9376 23.7062 36.6617C23.7092 36.6713 23.7124 36.6807 23.7157 36.6902C25.8778 42.7336 30.2654 47.7235 35.9825 50.641C35.7712 52.1518 35.9101 53.6911 36.3885 55.1397C36.8668 56.5883 37.6718 57.9076 38.7412 58.9956C38.7691 59.0241 38.7985 59.0505 38.8266 59.0786C38.2121 58.9858 37.6034 58.8688 37.0004 58.7278ZM22.7795 23.3828C22.7212 23.6723 22.6681 23.9622 22.6204 24.2525L19.2871 27.5858V22.0636C20.5407 22.2147 21.7391 22.6673 22.7795 23.3828ZM29.858 25.7365C29.5753 24.4891 29.3968 23.2204 29.3242 21.9435C29.3163 21.8029 29.2788 21.6657 29.2141 21.5406C29.1495 21.4156 29.0592 21.3056 28.9491 21.2179C28.839 21.1302 28.7117 21.0667 28.5754 21.0316C28.4391 20.9964 28.2969 20.9905 28.1581 21.0141C27.9027 21.0576 27.6437 21.0956 27.3831 21.1306C27.547 20.3947 27.9154 19.7202 28.446 19.1847C28.9766 18.6491 29.6477 18.2745 30.382 18.1038C31.1163 17.9331 31.8838 17.9735 32.5962 18.2201C33.3086 18.4668 33.9368 18.9097 34.4083 19.4979C34.8799 20.086 35.1756 20.7955 35.2615 21.5444C35.3473 22.2934 35.2198 23.0514 34.8935 23.731C34.5673 24.4106 34.0557 24.9842 33.4176 25.3856C32.7795 25.7871 32.041 26 31.2871 26C30.7986 26.001 30.3141 25.9116 29.858 25.7365ZM26.3746 23.2516C26.7212 23.2232 27.0671 23.1875 27.4121 23.1446C27.5319 24.3388 27.7374 25.5228 28.0271 26.6875C28.6241 29.0881 29.5777 31.3856 30.8562 33.5033C30.9016 33.5795 30.9489 33.6545 30.9954 33.7301C30.6218 34.2705 30.3873 34.8946 30.3124 35.5472C30.2376 36.1999 30.3248 36.8609 30.5663 37.4718C30.8078 38.0827 31.1962 38.6247 31.6971 39.0497C32.198 39.4747 32.7959 39.7697 33.438 39.9086C33.2129 40.699 33.237 41.5396 33.5069 42.3159C33.7769 43.0922 34.2796 43.7663 34.9465 44.2466C35.6135 44.7268 36.4123 44.9898 37.2341 44.9996C38.0559 45.0094 38.8607 44.7657 39.539 44.3016C38.1482 45.4494 37.0902 46.9488 36.475 48.6438C31.4195 45.9343 27.5481 41.4466 25.6095 36.0483C25.6066 36.0392 25.6035 36.0302 25.6004 36.0212C24.9394 34.1529 24.5235 32.2068 24.3629 30.2316C24.3438 29.9939 24.3279 29.756 24.3154 29.518V29.5078C24.2964 29.1223 24.2866 28.729 24.2866 28.3386C24.2867 27.1796 24.3733 26.0222 24.5459 24.8761C24.6217 24.3636 24.7177 23.8481 24.8334 23.3323C25.3556 23.3216 25.8724 23.2943 26.3746 23.2516ZM35.2871 31C35.2873 30.584 35.4172 30.1785 35.6586 29.8399C35.9 29.5012 36.241 29.2462 36.6342 29.1104C37.0273 28.9747 37.453 28.9648 37.852 29.0823C38.251 29.1998 38.6034 29.4387 38.8602 29.7658C39.1427 30.1254 39.2934 30.571 39.2871 31.0283C39.2807 31.4855 39.1177 31.9267 38.8254 32.2783C38.413 32.4408 38.0303 32.6703 37.6929 32.9576C37.4243 33.0128 37.1473 33.0128 36.8787 32.9576C36.5422 32.6704 36.1603 32.4409 35.7487 32.2786C35.4493 31.9199 35.2858 31.4672 35.2871 31ZM44.8827 34.5761C45.104 34.3578 45.373 34.194 45.6685 34.0976C45.6727 34.0965 45.6769 34.0951 45.681 34.0938H45.6832L45.6931 34.0908C46.0799 33.9712 46.4938 33.9712 46.8806 34.0908C46.8908 34.094 46.9009 34.097 46.911 34.0998C47.2035 34.1969 47.4699 34.3596 47.6899 34.5755C48.0469 34.927 48.2589 35.3998 48.284 35.9002C48.3091 36.4007 48.1455 36.8923 47.8255 37.2778C47.3717 37.457 46.9542 37.7171 46.5935 38.0456L46.5831 37.9785C46.2762 38.0247 45.9627 37.9987 45.6676 37.9025C45.3725 37.8064 45.1039 37.6427 44.8831 37.4245C44.8752 37.4167 44.8671 37.409 44.859 37.4015C44.5474 37.0845 44.3505 36.6727 44.2994 36.2312C44.2482 35.7897 44.3458 35.3438 44.5766 34.964C44.6619 34.8223 44.7648 34.692 44.8827 34.5761ZM51.2871 41C51.2867 41.3538 51.1922 41.7011 51.0131 42.0062C50.4936 42.0194 49.9759 42.0729 49.4646 42.1662C49.2691 42.202 49.0716 42.2257 48.8732 42.2372C48.6669 41.2865 48.3841 40.3541 48.0276 39.449C48.2178 39.2934 48.4351 39.1743 48.6685 39.0976L48.681 39.094L48.6835 39.0932L48.6932 39.0902C49.08 38.9704 49.494 38.9704 49.8807 39.0902C49.8889 39.0928 49.897 39.0952 49.9057 39.0976C50.199 39.1929 50.4663 39.3548 50.6864 39.5708C50.7176 39.6021 50.7472 39.6333 50.7776 39.6675C51.106 40.0336 51.2875 40.5082 51.2871 41ZM35.7537 39.7202C36.1634 39.558 36.5435 39.3292 36.8787 39.0432C37.1473 38.988 37.4242 38.988 37.6927 39.0432C38.0289 39.3294 38.4098 39.5582 38.8204 39.7205C39.1215 40.0788 39.2868 40.5319 39.2871 41C39.2873 41.0892 39.281 41.1784 39.2682 41.2667C39.2275 41.5742 39.1157 41.868 38.9418 42.1249C38.7679 42.3818 38.5366 42.5946 38.2662 42.7467C37.9958 42.8987 37.6938 42.9857 37.384 43.0009C37.0741 43.016 36.765 42.9589 36.4811 42.834C36.1972 42.709 35.9462 42.5197 35.7481 42.281C35.5499 42.0424 35.41 41.7609 35.3395 41.4588C35.2689 41.1567 35.2696 40.8424 35.3415 40.5406C35.4134 40.2389 35.5545 39.958 35.7537 39.7202ZM40.2871 43.6432C40.3046 43.6631 40.3215 43.6836 40.3395 43.7031C40.2124 43.7888 40.0874 43.8771 39.9645 43.9681C40.0781 43.8659 40.1858 43.7575 40.2871 43.6432ZM42.2387 42.7018C41.9887 42.548 41.7755 42.3409 41.6145 42.0954C41.4535 41.8499 41.3486 41.5719 41.3071 41.2812C41.2934 41.1881 41.2867 41.0941 41.2871 41C41.2865 40.5321 41.4512 40.079 41.7521 39.7207C42.1632 39.5583 42.5448 39.3292 42.8814 39.0427C43.149 38.988 43.4249 38.988 43.6925 39.0427C44.0287 39.3289 44.4098 39.5577 44.8204 39.72C45.0892 40.04 45.2506 40.4365 45.2816 40.8533C45.3126 41.2701 45.2118 41.6861 44.9934 42.0425C44.0482 42.1286 43.1205 42.3507 42.2387 42.7018ZM42.2871 36C42.2871 36.5304 42.0764 37.0391 41.7013 37.4142C41.3263 37.7892 40.8175 38 40.2871 38H39.8944C39.8298 37.9624 39.7613 37.932 39.69 37.9096C39.3371 37.7992 39.0217 37.5924 38.7789 37.3135C38.536 37.0346 38.3752 36.6939 38.3144 36.3292C38.2535 35.9645 38.295 35.59 38.4341 35.2474C38.5733 34.9048 38.8047 34.6075 39.1026 34.3885C39.4006 34.1695 39.7534 34.0374 40.1219 34.0069C40.4904 33.9763 40.8602 34.0486 41.1901 34.2155C41.5201 34.3825 41.7973 34.6376 41.9909 34.9527C42.1846 35.2677 42.2871 35.6302 42.2871 36ZM36.2871 36C36.2871 36.3955 36.1698 36.7822 35.9501 37.1111C35.7303 37.44 35.4179 37.6963 35.0525 37.8477C34.687 37.9991 34.2849 38.0387 33.8969 37.9615C33.509 37.8844 33.1526 37.6939 32.8729 37.4142C32.5932 37.1345 32.4027 36.7781 32.3255 36.3901C32.2484 36.0022 32.288 35.6 32.4394 35.2346C32.5907 34.8691 32.8471 34.5568 33.176 34.337C33.5049 34.1173 33.8916 34 34.2871 34C34.8174 34.0006 35.3257 34.2115 35.7006 34.5864C36.0756 34.9614 36.2865 35.4697 36.2871 36ZM22.3084 29.3385H22.2871C21.6699 29.3385 21.0521 29.311 20.4387 29.2622L22.3047 27.3962C22.293 27.7106 22.2871 28.0248 22.2871 28.3387C22.2871 28.6721 22.2955 29.0066 22.3084 29.3385ZM17.2871 27.5858L13.3827 23.6813C14.5136 22.7984 15.8631 22.2393 17.2871 22.0638V27.5858ZM15.873 29H10.351C10.5264 27.576 11.0855 26.2264 11.9685 25.0956L15.873 29ZM17.2871 37.9361C15.8631 37.7606 14.5136 37.2016 13.3827 36.3186L17.2871 32.4141V37.9361ZM18.8281 45H17.2871V47H19.2871V46.1523C20.7539 49.5882 22.9732 52.6509 25.7814 55.1148C21.1919 54.6417 16.9814 52.8706 13.7302 50.009C10.5577 47.2175 8.69424 43.6956 8.40824 40H17.5559C17.8057 41.7062 18.232 43.3818 18.8281 45ZM59.2852 51.8261C59.312 53.0964 59.0361 54.3548 58.4802 55.4972C57.9243 56.6397 57.1044 57.6335 56.0884 58.3963C55.0723 59.1592 53.8893 59.6693 52.6371 59.8843C51.3849 60.0994 50.0995 60.0133 48.8871 59.6332C48.6918 59.5719 48.4824 59.5719 48.2871 59.6332C47.1869 59.9791 46.025 60.083 44.8809 59.9379C43.7368 59.7927 42.6376 59.402 41.6586 58.7924C40.6796 58.1827 39.844 57.3687 39.209 56.406C38.574 55.4433 38.1546 54.3547 37.9796 53.2148C37.8046 52.0748 37.8782 50.9106 38.1951 49.8017C38.5121 48.6929 39.065 47.6656 39.8161 46.7904C40.5671 45.9152 41.4985 45.2128 42.5464 44.7311C43.5942 44.2495 44.7338 44.0001 45.8871 44H45.9076C46.3289 44.0017 46.7495 44.0365 47.1654 44.1038C47.1762 44.1913 47.186 44.2768 47.1941 44.3577C47.1954 44.3702 47.197 44.3842 47.199 44.3978C47.2575 44.9537 47.2867 45.5123 47.2865 46.0712V46.8516C46.6567 46.6496 46.2865 46.281 46.2865 46H44.2871C44.2871 47.6822 46.0441 49 48.2871 49C50.5301 49 52.2871 47.6822 52.2871 46H50.2871C50.2871 46.281 49.9169 46.65 49.2871 46.8516V46.0712C49.2872 45.4528 49.2552 44.8347 49.1914 44.2196C49.404 44.2006 49.6161 44.1717 49.8276 44.133C50.3022 44.0456 50.7836 44.0011 51.2661 44C55.5979 43.9902 59.1937 47.5 59.2852 51.8261ZM54.2871 36C54.2878 36.2972 54.222 36.5907 54.0947 36.8593C53.9674 37.1278 53.7817 37.3645 53.5512 37.5521C53.3207 37.7397 53.0512 37.8735 52.7624 37.9436C52.4736 38.0137 52.1727 38.0185 51.8819 37.9575C51.5441 37.6697 51.1611 37.4398 50.7482 37.2771C50.5432 37.03 50.4006 36.7372 50.3325 36.4234C50.2645 36.1096 50.273 35.7841 50.3574 35.4743C50.4417 35.1644 50.5994 34.8795 50.8171 34.6435C51.0348 34.4075 51.3062 34.2274 51.6082 34.1184C51.9102 34.0094 52.2341 33.9747 52.5523 34.0173C52.8706 34.0599 53.1739 34.1784 53.4366 34.363C53.6994 34.5475 53.9138 34.7926 54.0619 35.0776C54.2099 35.3625 54.2872 35.6789 54.2871 36ZM49.2871 29C49.667 29 50.039 29.1082 50.3596 29.3119C50.6802 29.5156 50.9361 29.8065 51.0975 30.1503C51.2589 30.4942 51.319 30.8769 51.2708 31.2537C51.2226 31.6305 51.0681 31.9858 50.8254 32.278C50.413 32.4404 50.0303 32.6699 49.6929 32.9572C49.4252 33.0121 49.1492 33.0121 48.8815 32.9572C48.5436 32.6698 48.1607 32.44 47.7481 32.2771C47.5056 31.9848 47.3513 31.6296 47.3033 31.2529C47.2553 30.8761 47.3155 30.4935 47.4769 30.1498C47.6384 29.8061 47.8943 29.5154 48.2149 29.3118C48.5354 29.1081 48.9074 29 49.2871 29ZM45.2871 31C45.2882 31.4666 45.1249 31.9188 44.826 32.2771C44.4133 32.4397 44.0304 32.6695 43.6927 32.9572C43.4251 33.012 43.1491 33.012 42.8815 32.9572C42.5439 32.6697 42.1611 32.4401 41.7486 32.2776C41.5434 32.0306 41.4008 31.7378 41.3326 31.424C41.2645 31.1102 41.273 30.7846 41.3572 30.4747C41.4415 30.1649 41.5992 29.8799 41.8169 29.6438C42.0345 29.4078 42.3059 29.2276 42.6079 29.1186C42.9099 29.0095 43.2338 28.9748 43.5521 29.0173C43.8703 29.0599 44.1737 29.1784 44.4365 29.3629C44.6993 29.5475 44.9138 29.7926 45.0618 30.0775C45.2099 30.3625 45.2872 30.6789 45.2871 31ZM42.3257 27.1175C42.2539 27.1353 42.1826 27.155 42.1124 27.1762C42.2095 26.973 42.3006 26.7671 42.3856 26.5586C42.3608 26.7438 42.3408 26.9301 42.3257 27.1175ZM23.9154 15.2433C25.4689 13.5731 26.3188 11.3683 26.2882 9.08746V9.06983C26.2875 9.04646 26.2882 9.02308 26.2882 8.99971C26.2882 8.32685 26.424 7.66091 26.6875 7.04176C26.9509 6.42262 27.3366 5.86301 27.8214 5.39645C28.3062 4.92989 28.8802 4.56596 29.509 4.32648C30.1378 4.087 30.8085 3.97687 31.4809 4.00271C32.7231 4.05728 33.9011 4.57005 34.7875 5.44206C35.674 6.31408 36.206 7.48352 36.2809 8.72471C36.2871 8.84671 36.2892 8.97021 36.2872 9.09083C36.2291 11.3368 37.0536 13.5161 38.5837 15.1612C40.146 16.827 41.0907 18.9775 41.2606 21.255C41.4304 23.5324 40.8151 25.7993 39.5171 27.6783C38.8369 27.2223 38.0332 26.986 37.2144 27.0013C36.3957 27.0166 35.6013 27.2828 34.9387 27.7639C34.276 28.245 33.7769 28.9179 33.5088 29.6917C33.2407 30.4655 33.2165 31.3029 33.4395 32.0908C33.1258 32.1588 32.8214 32.2646 32.5331 32.4058C31.84 31.2485 31.2507 30.0321 30.772 28.7708C30.6685 28.498 30.572 28.2208 30.4785 27.9421C31.6595 28.103 32.8616 27.9084 33.9315 27.3833C35.0014 26.8581 35.8907 26.0261 36.4858 24.9934C37.0809 23.9608 37.3549 22.7743 37.2729 21.5852C37.1909 20.3962 36.7565 19.2585 36.0252 18.3174C35.2939 17.3762 34.2988 16.6742 33.1669 16.301C32.035 15.9277 30.8175 15.9001 29.6698 16.2217C28.5222 16.5432 27.4963 17.1994 26.7231 18.1064C25.9498 19.0134 25.4643 20.1302 25.3285 21.3143C24.9845 21.3297 24.6371 21.3381 24.2882 21.3381C24.2174 21.3381 24.1462 21.3381 24.0757 21.3361C23.8821 21.3296 23.6908 21.3802 23.5257 21.4816C22.8589 21.0713 22.1465 20.7402 21.403 20.4951C21.7022 18.5344 22.5766 16.7067 23.9154 15.2433ZM10.351 31H15.873L11.9685 34.9043C11.0855 33.7735 10.5264 32.4239 10.351 31ZM6.40298 40C6.68811 44.275 8.79449 48.33 12.4089 51.5106C16.6089 55.2077 22.2481 57.2437 28.2871 57.2437C28.3812 57.2437 28.4746 57.2412 28.569 57.2401C29.9845 58.1722 31.4917 58.9572 33.067 59.5826C31.489 59.8612 29.8895 60.0008 28.2871 60C15.4364 60 4.91211 51.1172 4.31398 40H6.40298Z" fill="#161915"/>
<path d="M12.2871 42H14.2871V44H12.2871V42Z" fill="#161915"/>
</svg>
