<svg width="65" height="64" viewBox="0 0 65 64" fill="none" xmlns="http://www.w3.org/2000/svg">
<g clip-path="url(#clip0_4122_5771)">
<path d="M60.8576 54C60.5924 54 60.3381 53.8946 60.1505 53.7071C59.963 53.5196 59.8576 53.2652 59.8576 53C59.8576 47.343 58.9336 42.922 57.0326 39.484C56.9674 39.369 56.9256 39.2422 56.9096 39.1109C56.8937 38.9796 56.904 38.8465 56.9398 38.7192C56.9757 38.5919 57.0365 38.473 57.1186 38.3694C57.2007 38.2657 57.3026 38.1794 57.4183 38.1154C57.534 38.0514 57.6613 38.011 57.7927 37.9965C57.9242 37.982 58.0572 37.9937 58.1841 38.031C58.311 38.0682 58.4292 38.1303 58.5319 38.2135C58.6347 38.2968 58.7199 38.3996 58.7826 38.516C60.8516 42.258 61.8576 47 61.8576 53C61.8576 53.2652 61.7523 53.5196 61.5647 53.7071C61.3772 53.8946 61.1228 54 60.8576 54ZM55.8136 37C55.6707 37 55.5295 36.9694 55.3994 36.9102C55.2694 36.8511 55.1535 36.7647 55.0596 36.657C51.2076 32.24 44.7466 30 35.8576 30C32.9068 29.9952 29.9683 30.3808 27.1186 31.147C26.8626 31.2162 26.5895 31.1809 26.3595 31.0488C26.1295 30.9166 25.9614 30.6986 25.8921 30.4425C25.8229 30.1864 25.8582 29.9133 25.9904 29.6833C26.1225 29.4533 26.3406 29.2852 26.5966 29.216C29.6165 28.4038 32.7305 27.9949 35.8576 28C45.3506 28 52.3176 30.471 56.5666 35.343C56.6927 35.4876 56.7745 35.6655 56.8022 35.8554C56.83 36.0452 56.8025 36.239 56.7231 36.4137C56.6438 36.5884 56.5158 36.7365 56.3545 36.8405C56.1933 36.9445 56.0055 36.9998 55.8136 37Z" fill="#161915"/>
<path d="M61.8579 57.9994H3.85789C3.67206 57.9995 3.48988 57.9478 3.33179 57.8501C3.1737 57.7524 3.04596 57.6126 2.96289 57.4464L0.962888 53.4464C0.886685 53.2939 0.850733 53.1244 0.858446 52.9541C0.866159 52.7838 0.917281 52.6183 1.00696 52.4733C1.09663 52.3284 1.22188 52.2087 1.37082 52.1257C1.51975 52.0428 1.68741 51.9993 1.85789 51.9994H3.89989C4.19989 48.3714 6.11389 44.1924 9.24489 40.3664C9.41421 40.1657 9.65565 40.0397 9.9171 40.0155C10.1785 39.9913 10.439 40.0709 10.6423 40.2371C10.8455 40.4034 10.9752 40.6428 11.0034 40.9039C11.0316 41.1649 10.956 41.4266 10.7929 41.6324C7.70289 45.4084 5.85789 49.6574 5.85789 52.9994C5.85789 53.2646 5.75253 53.5189 5.565 53.7065C5.37746 53.894 5.12311 53.9994 4.85789 53.9994H3.47589L4.47589 55.9994H61.2399L62.2399 53.9994H7.85789C7.59267 53.9994 7.33832 53.894 7.15078 53.7065C6.96325 53.5189 6.85789 53.2646 6.85789 52.9994C6.85789 52.7341 6.96325 52.4798 7.15078 52.2923C7.33832 52.1047 7.59267 51.9994 7.85789 51.9994H63.8579C64.0288 51.9984 64.1971 52.0413 64.3467 52.1239C64.4963 52.2065 64.6223 52.3261 64.7125 52.4712C64.8028 52.6163 64.8543 52.7822 64.8623 52.9529C64.8702 53.1236 64.8343 53.2935 64.7579 53.4464L62.7579 57.4464C62.6744 57.6134 62.5459 57.7537 62.3869 57.8514C62.2278 57.9491 62.0446 58.0004 61.8579 57.9994Z" fill="#161915"/>
<path d="M35.2922 46.2333C35.1262 46.2332 34.9628 46.1918 34.8168 46.1128C34.6708 46.0338 34.5468 45.9197 34.4559 45.7808C34.365 45.6419 34.3101 45.4826 34.2962 45.3172C34.2823 45.1517 34.3098 44.9855 34.3762 44.8333C34.9685 43.4781 35.1735 41.9852 34.9684 40.5205C34.7633 39.0558 34.1563 37.6766 33.2146 36.5361C32.273 35.3957 31.0336 34.5386 29.6341 34.06C28.2347 33.5815 26.73 33.5002 25.2872 33.8253C23.9162 34.161 22.4702 33.9924 21.2132 33.3503L21.0392 33.2653C20.1045 32.8258 19.0566 32.6865 18.0395 32.8666C17.0224 33.0468 16.0861 33.5375 15.3592 34.2713C15.2136 34.4181 15.0261 34.5162 14.8225 34.552C14.6188 34.5878 14.4091 34.5596 14.2222 34.4713L9.38418 32.1883C9.14447 32.075 8.95956 31.8712 8.87012 31.6216C8.78067 31.372 8.794 31.0971 8.90719 30.8573C9.11851 30.4115 9.15757 29.9032 9.01686 29.4303C8.87615 28.9574 8.5656 28.5532 8.14491 28.2954C7.72422 28.0376 7.22309 27.9444 6.73784 28.0338C6.2526 28.1231 5.8175 28.3886 5.51619 28.7793C5.32131 29.0311 5.19016 29.3263 5.13392 29.6397C5.07768 29.9531 5.09802 30.2755 5.19319 30.5793C5.26456 30.8161 5.24571 31.0708 5.14026 31.2945C5.03481 31.5181 4.85024 31.6948 4.62219 31.7903C4.32733 31.9098 4.06579 32.0989 3.85995 32.3415C3.65411 32.5841 3.51008 32.8729 3.44019 33.1833C3.33006 33.6645 3.4018 34.1695 3.64159 34.601C3.88139 35.0325 4.2723 35.3601 4.73911 35.5207C5.20591 35.6813 5.71562 35.6636 6.17015 35.471C6.62468 35.2784 6.99191 34.9244 7.20119 34.4773C7.25719 34.3585 7.33605 34.252 7.43325 34.1637C7.53045 34.0753 7.64409 34.007 7.76769 33.9627C7.89128 33.9183 8.02241 33.8987 8.15358 33.905C8.28476 33.9112 8.41341 33.9433 8.53219 33.9993L13.3692 36.2793C13.5555 36.3671 13.7101 36.5103 13.8119 36.6893C13.9137 36.8683 13.9578 37.0743 13.9382 37.2793C13.8349 38.307 14.0519 39.3415 14.5597 40.2409C15.0674 41.1404 15.8409 41.8608 16.7742 42.3033C16.893 42.3593 16.9996 42.4382 17.0879 42.5354C17.1762 42.6326 17.2445 42.7462 17.2888 42.8698C17.3332 42.9934 17.3528 43.1246 17.3465 43.2557C17.3403 43.3869 17.3082 43.5155 17.2522 43.6343C17.1962 43.7531 17.1173 43.8597 17.0201 43.948C16.9229 44.0363 16.8093 44.1046 16.6857 44.149C16.5621 44.1934 16.431 44.213 16.2998 44.2067C16.1686 44.2004 16.04 44.1683 15.9212 44.1123C14.7254 43.5455 13.7144 42.6519 13.005 41.5348C12.2956 40.4177 11.9167 39.1226 11.9122 37.7993L8.46819 36.1793C8.10469 36.6227 7.65013 36.9828 7.13531 37.2351C6.62049 37.4874 6.05743 37.6262 5.48431 37.6418C4.91119 37.6575 4.34139 37.5498 3.81353 37.3261C3.28567 37.1023 2.81209 36.7676 2.42488 36.3448C2.03767 35.922 1.74588 35.4208 1.5693 34.8754C1.39271 34.3299 1.33544 33.7528 1.40138 33.1833C1.46732 32.6138 1.65493 32.0651 1.95148 31.5744C2.24803 31.0837 2.64661 30.6625 3.12019 30.3393C3.06288 29.6979 3.16177 29.0521 3.40838 28.4573C3.655 27.8624 4.042 27.3361 4.53632 26.9233C5.03063 26.5106 5.61755 26.2237 6.24689 26.0871C6.87623 25.9506 7.52927 25.9685 8.15019 26.1393C9.12211 26.404 9.95837 27.0257 10.4919 27.8801C11.0254 28.7346 11.217 29.7588 11.0282 30.7483L14.4722 32.3733C15.4958 31.5345 16.7361 31.0028 18.0494 30.8396C19.3627 30.6764 20.6954 30.8885 21.8932 31.4513C21.9762 31.4903 22.0572 31.5303 22.1372 31.5723C22.974 31.9935 23.9344 32.1 24.8432 31.8723C26.6444 31.4797 28.519 31.5907 30.2614 32.1932C32.0037 32.7956 33.5465 33.8663 34.7205 35.2877C35.8945 36.7091 36.6543 38.4263 36.9168 40.2511C37.1792 42.0759 36.934 43.9377 36.2082 45.6323C36.1305 45.8108 36.0025 45.9627 35.8398 46.0694C35.6771 46.1762 35.4868 46.2331 35.2922 46.2333Z" fill="#161915"/>
<path d="M15.2164 29.3767C14.5581 29.3769 13.9099 29.2146 13.3293 28.9043C12.7488 28.5939 12.2538 28.1451 11.8883 27.5976C11.5228 27.0501 11.2981 26.4208 11.2341 25.7656C11.1701 25.1104 11.2687 24.4496 11.5214 23.8417C11.7909 23.1907 12.2297 22.6238 12.7924 22.1997C12.7138 21.6319 12.7581 21.0538 12.9225 20.5046C13.0868 19.9554 13.3672 19.448 13.7448 19.0166C14.1224 18.5853 14.5882 18.2402 15.1108 18.0046C15.6334 17.769 16.2006 17.6485 16.7738 17.6513C17.347 17.654 17.913 17.78 18.4333 18.0205C18.9536 18.2611 19.4161 18.6107 19.7895 19.0456C20.1629 19.4806 20.4385 19.9907 20.5975 20.5414C20.7566 21.0922 20.7954 21.6706 20.7114 22.2377L23.1584 23.2567C25.8364 20.5057 29.7434 21.6567 32.5194 22.8107C33.9129 23.3808 35.1763 24.2275 36.2334 25.2997C36.419 25.4902 36.5214 25.7468 36.5179 26.0128C36.5144 26.2788 36.4054 26.5325 36.2149 26.7182C36.1205 26.8101 36.009 26.8826 35.8866 26.9314C35.7643 26.9802 35.6335 27.0044 35.5018 27.0027C35.2358 26.9993 34.982 26.8903 34.7964 26.6997C33.9321 25.821 32.8986 25.1267 31.7584 24.6587C27.9244 23.0667 25.6754 23.1887 24.2414 25.0647C24.1074 25.2399 23.9192 25.3659 23.7061 25.4231C23.4931 25.4802 23.2671 25.4653 23.0634 25.3807L19.1404 23.7537C18.8954 23.652 18.701 23.4571 18.5997 23.212C18.4984 22.9669 18.4987 22.6916 18.6004 22.4467C18.7061 22.2033 18.7623 21.9412 18.7657 21.6759C18.7692 21.4105 18.7197 21.1471 18.6204 20.901C18.521 20.6549 18.3736 20.4311 18.1868 20.2425C18.0001 20.054 17.7776 19.9045 17.5325 19.8028C17.2874 19.701 17.0245 19.6491 16.7591 19.65C16.4937 19.6509 16.2311 19.7046 15.9867 19.808C15.7423 19.9114 15.5209 20.0624 15.3354 20.2523C15.1499 20.4421 15.0041 20.6669 14.9064 20.9137C14.7184 21.3697 14.7084 21.8797 14.8784 22.3427C14.9605 22.5767 14.9527 22.8328 14.8566 23.0614C14.7606 23.2899 14.583 23.4747 14.3584 23.5797C13.9107 23.7858 13.5569 24.1528 13.3674 24.6077C13.1641 25.0983 13.164 25.6497 13.3672 26.1403C13.5704 26.631 13.9602 27.0209 14.4509 27.2242C14.9415 27.4275 15.4928 27.4275 15.9835 27.2243C16.4742 27.0211 16.8641 26.6313 17.0674 26.1407C17.1691 25.896 17.3638 25.7017 17.6086 25.6005C17.8535 25.4992 18.1286 25.4993 18.3734 25.6007L22.2964 27.2287C22.4188 27.2783 22.5301 27.3516 22.624 27.4445C22.7179 27.5373 22.7925 27.6478 22.8434 27.7697C22.8944 27.8915 22.9207 28.0222 22.9209 28.1543C22.9211 28.2863 22.8951 28.4171 22.8444 28.539C22.7938 28.661 22.7195 28.7717 22.6258 28.8648C22.5322 28.9579 22.421 29.0315 22.2987 29.0814C22.1765 29.1313 22.0455 29.1565 21.9135 29.1555C21.7814 29.1545 21.6509 29.1274 21.5294 29.0757L18.4144 27.7827C18.0406 28.2766 17.5578 28.6774 17.0036 28.9539C16.4493 29.2304 15.8387 29.3751 15.2194 29.3767H15.2164ZM44.8584 17.9997C44.6554 18 44.4571 17.9384 44.29 17.8233C44.1228 17.7082 43.9946 17.545 43.9224 17.3553C43.8502 17.1656 43.8375 16.9584 43.8859 16.7613C43.9343 16.5641 44.0415 16.3864 44.1934 16.2517C44.4424 16.0207 45.6444 14.7147 44.0584 12.5997C41.8414 9.64469 43.1774 7.15569 44.1934 6.25169C44.3908 6.0744 44.6506 5.9828 44.9156 5.99705C45.1806 6.0113 45.4291 6.13024 45.6064 6.32769C45.7837 6.52515 45.8753 6.78494 45.861 7.04993C45.8468 7.31492 45.7278 7.5634 45.5304 7.74069C45.2704 7.98369 44.0744 9.28869 45.6584 11.3997C47.8754 14.3547 46.5394 16.8437 45.5234 17.7477C45.3401 17.9103 45.1034 18 44.8584 17.9997ZM51.8584 23.9997C51.6554 24 51.4571 23.9384 51.29 23.8233C51.1228 23.7082 50.9946 23.545 50.9224 23.3553C50.8502 23.1656 50.8375 22.9584 50.8859 22.7613C50.9343 22.5641 51.0415 22.3864 51.1934 22.2517C51.4424 22.0207 52.6444 20.7147 51.0584 18.5997C48.8414 15.6447 50.1774 13.1557 51.1934 12.2517C51.3908 12.0744 51.6506 11.9828 51.9156 11.9971C52.1806 12.0113 52.4291 12.1302 52.6064 12.3277C52.7837 12.5251 52.8753 12.7849 52.861 13.0499C52.8468 13.3149 52.7278 13.5634 52.5304 13.7407C52.2704 13.9837 51.0744 15.2887 52.6584 17.3997C54.8754 20.3547 53.5394 22.8437 52.5234 23.7477C52.3401 23.9103 52.1034 24 51.8584 23.9997ZM38.8584 21.9997C38.6554 22 38.4571 21.9384 38.29 21.8233C38.1228 21.7082 37.9946 21.545 37.9224 21.3553C37.8502 21.1656 37.8375 20.9584 37.8859 20.7613C37.9343 20.5641 38.0415 20.3864 38.1934 20.2517C38.4424 20.0207 39.6444 18.7147 38.0584 16.5997C35.8414 13.6447 37.1774 11.1557 38.1934 10.2517C38.3908 10.0744 38.6506 9.9828 38.9156 9.99705C39.1806 10.0113 39.4291 10.1302 39.6064 10.3277C39.7837 10.5251 39.8753 10.7849 39.861 11.0499C39.8468 11.3149 39.7278 11.5634 39.5304 11.7407C39.2704 11.9837 38.0744 13.2887 39.6584 15.3997C41.8754 18.3547 40.5394 20.8437 39.5234 21.7477C39.3401 21.9103 39.1034 22 38.8584 21.9997Z" fill="#161915"/>
</g>
<defs>
<clipPath id="clip0_4122_5771">
<rect width="64" height="64" fill="white" transform="translate(0.857422)"/>
</clipPath>
</defs>
</svg>
