<svg width="64" height="64" viewBox="0 0 64 64" fill="none" xmlns="http://www.w3.org/2000/svg">
<g clip-path="url(#clip0_4122_5774)">
<path d="M11.7333 2.13333V7.05173L0.280533 19.5456C0.249516 19.5888 0.222048 19.6345 0.1984 19.6821C0.150986 19.744 0.110562 19.8109 0.0778667 19.8816C0.0526447 19.9576 0.0368815 20.0364 0.0309333 20.1163C0.0163376 20.1654 0.00598851 20.2157 0 20.2667V62.9333C0 63.2162 0.112381 63.4875 0.31242 63.6876C0.512458 63.8876 0.783769 64 1.06667 64H35.1467C35.4296 64 35.7009 63.8876 35.9009 63.6876C36.101 63.4875 36.2133 63.2162 36.2133 62.9333C36.2133 62.6504 36.101 62.3791 35.9009 62.1791C35.7009 61.979 35.4296 61.8667 35.1467 61.8667H25.6V21.3333H41.6V33.1093C41.6 33.3922 41.7124 33.6635 41.9124 33.8636C42.1125 34.0636 42.3838 34.176 42.6667 34.176C42.9496 34.176 43.2209 34.0636 43.4209 33.8636C43.621 33.6635 43.7333 33.3922 43.7333 33.1093V20.2667C43.7274 20.2157 43.717 20.1654 43.7024 20.1163C43.6965 20.0364 43.6807 19.9576 43.6555 19.8816C43.6228 19.8109 43.5824 19.744 43.5349 19.6821C43.5113 19.6345 43.4838 19.5888 43.4528 19.5456L32 7.05173V2.13333C32 1.56754 31.7752 1.02492 31.3752 0.624839C30.9751 0.224761 30.4325 0 29.8667 0H13.8667C13.3009 0 12.7583 0.224761 12.3582 0.624839C11.9581 1.02492 11.7333 1.56754 11.7333 2.13333ZM3.4912 19.2L12.8 9.04533L22.1088 19.2H3.4912ZM23.4667 61.8667H2.13333V21.3333H23.4667V61.8667ZM40.2421 19.2H25.0027L15.2245 8.53333H30.464L40.2421 19.2ZM13.8667 2.13333H29.8667V6.4H13.8667V2.13333Z" fill="#161915"/>
<path d="M19.1995 39.7454V36.6627C20.702 35.6772 21.7796 34.1634 22.2189 32.421C22.6583 30.6787 22.4273 28.8349 21.5717 27.2547C21.4959 27.104 21.3854 26.9734 21.2492 26.8737C21.1131 26.774 20.9553 26.708 20.7887 26.6811C20.6221 26.6543 20.4515 26.6673 20.291 26.7192C20.1304 26.7711 19.9844 26.8603 19.8651 26.9795L16.7099 30.1347C15.5913 29.2687 14.2168 28.7987 12.8021 28.7987C11.3875 28.7987 10.0129 29.2687 8.8944 30.1347L5.73493 26.9795C5.61555 26.8603 5.46959 26.7711 5.30902 26.7192C5.14846 26.6673 4.97788 26.6543 4.81129 26.6811C4.64471 26.708 4.48688 26.774 4.35075 26.8737C4.21463 26.9734 4.10411 27.104 4.02827 27.2547C3.17261 28.8347 2.94146 30.6785 3.3806 32.4208C3.81974 34.1631 4.89714 35.677 6.39947 36.6627V39.7454C5.46903 40.5146 4.79854 41.5521 4.47946 42.7164C4.16038 43.8807 4.20825 45.1151 4.61654 46.2511C5.02482 47.3872 5.77364 48.3697 6.76085 49.0645C7.74806 49.7593 8.92558 50.1327 10.1328 50.1337H15.4661C16.6734 50.1327 17.8509 49.7593 18.8381 49.0645C19.8253 48.3697 20.5741 47.3872 20.9824 46.2511C21.3907 45.1151 21.4385 43.8807 21.1195 42.7164C20.8004 41.5521 20.1299 40.5146 19.1995 39.7454ZM20.1595 29.7059C20.3426 30.4551 20.3412 31.2376 20.1554 31.9861C19.9696 32.7346 19.605 33.4269 19.0928 34.0035C18.9358 33.1839 18.6191 32.4032 18.1605 31.7059L20.1595 29.7059ZM5.43947 29.6995L7.44373 31.7038C6.98521 32.4038 6.66948 33.1875 6.51467 34.0099C5.9952 33.435 5.62536 32.741 5.43783 31.9892C5.25031 31.2375 5.25087 30.4511 5.43947 29.6995ZM8.5328 35.2003C8.53444 34.3609 8.78332 33.5404 9.24837 32.8415C9.71342 32.1426 10.374 31.5962 11.1477 31.2704C11.9215 30.9447 12.774 30.854 13.5989 31.0098C14.4238 31.1656 15.1845 31.561 15.7861 32.1465L15.8277 32.1923L15.8768 32.2467C16.6405 33.0403 17.0668 34.099 17.0661 35.2003V38.6275C16.5459 38.4779 16.0074 38.4014 15.4661 38.4003H10.1328C9.5915 38.4014 9.053 38.4779 8.5328 38.6275V35.2003ZM15.4661 48.0003H10.1328C9.14266 48.0003 8.19307 47.607 7.49293 46.9069C6.7928 46.2067 6.39947 45.2571 6.39947 44.267C6.39947 43.2769 6.7928 42.3273 7.49293 41.6271C8.19307 40.927 9.14266 40.5337 10.1328 40.5337H15.4661C16.4563 40.5337 17.4059 40.927 18.106 41.6271C18.8061 42.3273 19.1995 43.2769 19.1995 44.267C19.1995 45.2571 18.8061 46.2067 18.106 46.9069C17.4059 47.607 16.4563 48.0003 15.4661 48.0003Z" fill="#161915"/>
<path d="M10.6674 36.267C11.2565 36.267 11.734 35.7895 11.734 35.2003C11.734 34.6112 11.2565 34.1337 10.6674 34.1337C10.0783 34.1337 9.60069 34.6112 9.60069 35.2003C9.60069 35.7895 10.0783 36.267 10.6674 36.267Z" fill="#161915"/>
<path d="M14.9312 36.267C15.5203 36.267 15.9979 35.7895 15.9979 35.2003C15.9979 34.6112 15.5203 34.1337 14.9312 34.1337C14.3421 34.1337 13.8646 34.6112 13.8646 35.2003C13.8646 35.7895 14.3421 36.267 14.9312 36.267Z" fill="#161915"/>
<path d="M10.6674 42.6665C10.3845 42.6665 10.1131 42.7789 9.91311 42.9789C9.71307 43.179 9.60069 43.4503 9.60069 43.7332V44.7998C9.60069 45.0827 9.71307 45.354 9.91311 45.5541C10.1131 45.7541 10.3845 45.8665 10.6674 45.8665C10.9503 45.8665 11.2216 45.7541 11.4216 45.5541C11.6216 45.354 11.734 45.0827 11.734 44.7998V43.7332C11.734 43.4503 11.6216 43.179 11.4216 42.9789C11.2216 42.7789 10.9503 42.6665 10.6674 42.6665ZM14.934 42.6665C14.6511 42.6665 14.3798 42.7789 14.1798 42.9789C13.9797 43.179 13.8674 43.4503 13.8674 43.7332V44.7998C13.8674 45.0827 13.9797 45.354 14.1798 45.5541C14.3798 45.7541 14.6511 45.8665 14.934 45.8665C15.2169 45.8665 15.4882 45.7541 15.6883 45.5541C15.8883 45.354 16.0007 45.0827 16.0007 44.7998V43.7332C16.0007 43.4503 15.8883 43.179 15.6883 42.9789C15.4882 42.7789 15.2169 42.6665 14.934 42.6665ZM49.0674 34.1332C49.3503 34.1332 49.6216 34.0208 49.8216 33.8207C50.0216 33.6207 50.134 33.3494 50.134 33.0665C50.134 32.5769 50.3474 32.3657 50.8551 31.8932C51.2919 31.5816 51.648 31.1702 51.8937 30.6931C52.1394 30.2161 52.2675 29.6873 52.2675 29.1508C52.2675 28.6142 52.1394 28.0854 51.8937 27.6084C51.648 27.1314 51.2919 26.7199 50.8551 26.4084C50.342 25.938 50.134 25.7278 50.134 25.235C50.134 24.7422 50.3474 24.5374 50.854 24.0681C51.2831 23.7507 51.6336 23.3391 51.8786 22.8649C52.1237 22.3908 52.2566 21.8668 52.2674 21.3332C52.2674 21.0503 52.155 20.7789 51.9549 20.5789C51.7549 20.3789 51.4836 20.2665 51.2007 20.2665C50.9178 20.2665 50.6465 20.3789 50.4464 20.5789C50.2464 20.7789 50.134 21.0503 50.134 21.3332C50.134 21.8217 49.9207 22.0308 49.414 22.5001C48.9772 22.8114 48.6211 23.2227 48.3754 23.6995C48.1297 24.1763 48.0015 24.705 48.0015 25.2414C48.0015 25.7778 48.1297 26.3065 48.3754 26.7833C48.6211 27.2602 48.9772 27.6714 49.414 27.9828C49.9271 28.4532 50.1351 28.6644 50.1351 29.1561C50.1351 29.6478 49.9218 29.8558 49.414 30.3294C48.9848 30.6472 48.6342 31.0591 48.3892 31.5337C48.1441 32.0082 48.0112 32.5326 48.0007 33.0665C48.0007 33.3494 48.1131 33.6207 48.3131 33.8207C48.5131 34.0208 48.7845 34.1332 49.0674 34.1332ZM57.254 24.0734C57.6838 23.7555 58.0347 23.343 58.2798 22.8679C58.5249 22.3928 58.6575 21.8677 58.6674 21.3332C58.6674 21.0503 58.555 20.7789 58.3549 20.5789C58.1549 20.3789 57.8836 20.2665 57.6007 20.2665C57.3178 20.2665 57.0465 20.3789 56.8464 20.5789C56.6464 20.7789 56.534 21.0503 56.534 21.3332C56.534 21.8217 56.3207 22.0308 55.814 22.5001C55.3772 22.8114 55.0211 23.2227 54.7754 23.6995C54.5297 24.1763 54.4015 24.705 54.4015 25.2414C54.4015 25.7778 54.5297 26.3065 54.7754 26.7833C55.0211 27.2602 55.3772 27.6714 55.814 27.9828C56.3271 28.4532 56.5351 28.6644 56.5351 29.1561C56.5351 29.6478 56.3218 29.8558 55.814 30.3294C55.3848 30.6472 55.0342 31.0591 54.7892 31.5337C54.5441 32.0082 54.4112 32.5326 54.4007 33.0665C54.4007 33.3494 54.5131 33.6207 54.7131 33.8207C54.9131 34.0208 55.1845 34.1332 55.4674 34.1332C55.7503 34.1332 56.0216 34.0208 56.2216 33.8207C56.4216 33.6207 56.534 33.3494 56.534 33.0665C56.534 32.5769 56.7474 32.3657 57.2551 31.8932C57.6919 31.5816 58.048 31.1702 58.2937 30.6931C58.5394 30.2161 58.6675 29.6873 58.6675 29.1508C58.6675 28.6142 58.5394 28.0854 58.2937 27.6084C58.048 27.1314 57.6919 26.7199 57.2551 26.4084C56.742 25.938 56.534 25.7278 56.534 25.235C56.534 24.7422 56.7474 24.5428 57.254 24.0734ZM8.53402 57.5998H6.40069V55.4665C6.40069 55.1836 6.28831 54.9123 6.08827 54.7122C5.88823 54.5122 5.61692 54.3998 5.33402 54.3998C5.05112 54.3998 4.77981 54.5122 4.57977 54.7122C4.37973 54.9123 4.26735 55.1836 4.26735 55.4665V58.6665C4.26735 58.9494 4.37973 59.2207 4.57977 59.4207C4.77981 59.6208 5.05112 59.7332 5.33402 59.7332H8.53402C8.81692 59.7332 9.08823 59.6208 9.28827 59.4207C9.48831 59.2207 9.60069 58.9494 9.60069 58.6665C9.60069 58.3836 9.48831 58.1123 9.28827 57.9122C9.08823 57.7122 8.81692 57.5998 8.53402 57.5998ZM52.2674 59.7332H55.093C55.2408 59.7337 55.3871 59.7034 55.5227 59.6444C55.6582 59.5853 55.78 59.4987 55.8803 59.3901C55.9806 59.2815 56.0572 59.1532 56.1053 59.0134C56.1534 58.8736 56.1719 58.7253 56.1596 58.578L55.8898 55.3428C55.8795 55.2022 55.8414 55.065 55.7777 54.9392C55.7141 54.8134 55.6262 54.7015 55.519 54.6099C55.4119 54.5183 55.2876 54.4489 55.1535 54.4056C55.0193 54.3623 54.8779 54.346 54.7374 54.3577C54.5969 54.3694 54.4602 54.4089 54.335 54.4738C54.2099 54.5386 54.0988 54.6277 54.0083 54.7357C53.9178 54.8438 53.8495 54.9687 53.8076 55.1033C53.7656 55.2379 53.7508 55.3795 53.7639 55.5198L53.9346 57.5998H52.2674C51.9845 57.5998 51.7131 57.7122 51.5131 57.9122C51.3131 58.1123 51.2007 58.3836 51.2007 58.6665C51.2007 58.9494 51.3131 59.2207 51.5131 59.4207C51.7131 59.6208 51.9845 59.7332 52.2674 59.7332Z" fill="#161915"/>
<path d="M36.9926 54.3998H38.0411L37.6262 59.379C37.5772 59.9671 37.6507 60.559 37.8422 61.1172C38.0336 61.6754 38.3388 62.1879 38.7383 62.6222C39.1379 63.0564 39.6233 63.4031 40.1637 63.6402C40.7041 63.8773 41.2878 63.9998 41.8779 63.9998H56.2555C56.8456 63.9998 57.4294 63.8773 57.9697 63.6402C58.5101 63.4031 58.9955 63.0564 59.3951 62.6222C59.7946 62.1879 60.0998 61.6754 60.2912 61.1172C60.4827 60.559 60.5562 59.9671 60.5072 59.379L60.0123 53.4313L63.9366 38.9172C64.0152 38.6027 64.0211 38.2744 63.9538 37.9573C63.8866 37.6402 63.748 37.3426 63.5485 37.087C63.349 36.8315 63.0939 36.6248 62.8026 36.4826C62.5113 36.3405 62.1914 36.2665 61.8672 36.2665H43.4779C42.5355 36.2739 41.6217 36.5912 40.8776 37.1696C40.1335 37.7479 39.6004 38.5551 39.3606 39.4665H37.5259C36.4574 39.4724 35.4295 39.8764 34.643 40.5998C33.8566 41.3231 33.3681 42.3137 33.2731 43.378L32.7398 49.778C32.6919 50.366 32.7663 50.9575 32.9582 51.5154C33.1501 52.0732 33.4554 52.5853 33.8549 53.0194C34.2543 53.4536 34.7393 53.8003 35.2793 54.0379C35.8193 54.2754 36.4026 54.3987 36.9926 54.3998ZM43.4779 38.3998H61.8672L59.4918 47.1838L59.112 42.6292C59.0859 42.3493 58.9504 42.0911 58.735 41.9106C58.5195 41.7301 58.2415 41.6419 57.9614 41.6653C57.6814 41.6886 57.4218 41.8215 57.2392 42.0352C57.0565 42.2488 56.9656 42.5259 56.9862 42.8062L58.3814 59.5529C58.4063 59.8472 58.3699 60.1435 58.2744 60.423C58.1789 60.7025 58.0264 60.9591 57.8265 61.1766C57.6267 61.3941 57.3839 61.5677 57.1134 61.6865C56.843 61.8052 56.5509 61.8665 56.2555 61.8665H41.8779C41.5828 61.8665 41.291 61.8053 41.0208 61.6867C40.7506 61.5681 40.5079 61.3948 40.3081 61.1777C40.1083 60.9605 39.9558 60.7043 39.86 60.4252C39.7643 60.1461 39.7275 59.8501 39.752 59.5561L41.352 40.3561C41.3993 39.8239 41.6434 39.3285 42.0365 38.9667C42.4297 38.6049 42.9436 38.4028 43.4779 38.3998ZM35.4 43.555C35.4473 43.0229 35.6914 42.5276 36.0846 42.166C36.4778 41.8044 36.9917 41.6025 37.5259 41.5998H39.1078L38.2192 52.2665H36.9926C36.6977 52.2655 36.4062 52.2036 36.1364 52.0847C35.8665 51.9657 35.6242 51.7923 35.4246 51.5752C35.225 51.3582 35.0724 51.1022 34.9764 50.8234C34.8804 50.5446 34.843 50.249 34.8667 49.955L35.4 43.555Z" fill="#161915"/>
</g>
<defs>
<clipPath id="clip0_4122_5774">
<rect width="64" height="64" fill="white"/>
</clipPath>
</defs>
</svg>
