<svg width="65" height="64" viewBox="0 0 65 64" fill="none" xmlns="http://www.w3.org/2000/svg">
<g clip-path="url(#clip0_4122_6539)">
<path d="M24.4676 33.3665C24.8267 33.7263 25.2767 33.9819 25.7697 34.106C26.2626 34.2301 26.78 34.218 27.2666 34.0712C27.7535 33.9251 28.1916 33.6496 28.5343 33.2742C28.8769 32.8987 29.1112 32.4372 29.2122 31.939L30.7652 24.3123C30.7898 24.1917 30.7904 24.0674 30.7669 23.9465C30.7434 23.8256 30.6963 23.7106 30.6284 23.6079C30.5605 23.5052 30.4729 23.417 30.3709 23.3481C30.2688 23.2792 30.1542 23.2312 30.0336 23.2066C29.9129 23.1821 29.7886 23.1815 29.6678 23.205C29.5469 23.2285 29.4318 23.2755 29.3292 23.3435C29.2265 23.4114 29.1382 23.4989 29.0694 23.601C29.0005 23.703 28.9524 23.8177 28.9279 23.9383L27.3749 31.565C27.2739 32.0607 26.8877 32.2272 26.7264 32.2757C26.5649 32.3243 26.1509 32.3984 25.7934 32.0408L11.8557 18.1033C11.498 17.7455 11.5724 17.3315 11.621 17.1702C11.6695 17.0088 11.836 16.6225 12.3316 16.5217L29.8331 12.9578C30.1466 12.8934 30.4566 12.987 30.683 13.2135C30.9095 13.4399 31.0026 13.7497 30.9387 14.0635L29.8189 19.5633C29.7943 19.6839 29.7938 19.8082 29.8172 19.9291C29.8407 20.05 29.8878 20.165 29.9557 20.2677C30.0237 20.3704 30.1112 20.4586 30.2132 20.5275C30.3153 20.5963 30.4299 20.6444 30.5506 20.669C30.6712 20.6935 30.7955 20.6941 30.9164 20.6706C31.0372 20.6471 31.1523 20.6001 31.2549 20.5321C31.3576 20.4642 31.4459 20.3767 31.5148 20.2746C31.5836 20.1726 31.6317 20.0579 31.6562 19.9373L32.7761 14.4377C32.8695 13.9824 32.8483 13.511 32.7144 13.0659C32.5805 12.6208 32.3381 12.216 32.009 11.8878C31.6808 11.5587 31.2759 11.3164 30.8309 11.1824C30.3858 11.0485 29.9144 11.0272 29.4591 11.1204L11.9575 14.6843C11.4593 14.7853 10.9979 15.0196 10.6225 15.3623C10.247 15.7049 9.97157 16.143 9.82549 16.6298C9.67864 17.1165 9.66661 17.6339 9.79068 18.1268C9.91475 18.6198 10.1703 19.0699 10.53 19.429L24.4676 33.3665Z" fill="white"/>
<path d="M24.7347 26.189C24.6477 26.2761 24.5786 26.3794 24.5315 26.4932C24.4844 26.6069 24.4601 26.7288 24.4601 26.852C24.4601 26.9751 24.4844 27.097 24.5315 27.2107C24.5786 27.3245 24.6477 27.4278 24.7347 27.5149C24.8218 27.6019 24.9251 27.671 25.0389 27.7181C25.1526 27.7652 25.2745 27.7895 25.3977 27.7895C25.5208 27.7895 25.6427 27.7652 25.7564 27.7181C25.8702 27.671 25.9735 27.6019 26.0606 27.5149C26.2364 27.3391 26.3352 27.1006 26.3352 26.852C26.3352 26.6033 26.2364 26.3648 26.0606 26.189C25.8848 26.0132 25.6463 25.9144 25.3977 25.9144C25.149 25.9144 24.9105 26.0132 24.7347 26.189ZM22.0831 17.085C21.996 16.998 21.8927 16.9289 21.7789 16.8818C21.6652 16.8347 21.5433 16.8104 21.4202 16.8104C21.297 16.8104 21.1751 16.8347 21.0614 16.8818C20.9476 16.9289 20.8443 16.998 20.7572 17.085C20.6702 17.1721 20.6011 17.2754 20.554 17.3892C20.5069 17.5029 20.4826 17.6248 20.4826 17.748C20.4826 17.8711 20.5069 17.993 20.554 18.1067C20.6011 18.2205 20.6702 18.3238 20.7572 18.4109C20.933 18.5867 21.1715 18.6855 21.4202 18.6855C21.6688 18.6855 21.9073 18.5867 22.0831 18.4109C22.2589 18.2351 22.3577 17.9966 22.3577 17.748C22.3577 17.4993 22.2589 17.2608 22.0831 17.085ZM15.8075 17.9689C15.6317 18.1447 15.5329 18.3832 15.5329 18.6318C15.5329 18.8805 15.6317 19.1189 15.8075 19.2948C15.9833 19.4706 16.2218 19.5694 16.4704 19.5694C16.7191 19.5694 16.9575 19.4706 17.1334 19.2948C17.3092 19.1189 17.4079 18.8805 17.4079 18.6318C17.4079 18.3832 17.3092 18.1447 17.1334 17.9689C16.9575 17.7931 16.7191 17.6943 16.4704 17.6943C16.2218 17.6943 15.9833 17.7931 15.8075 17.9689ZM26.2373 20.0018C26.0615 19.8259 25.8231 19.7272 25.5744 19.7272C25.3258 19.7272 25.0873 19.8259 24.9115 20.0018C24.7357 20.1776 24.6369 20.4161 24.6369 20.6647C24.6369 20.9134 24.7357 21.1518 24.9115 21.3276C24.9985 21.4147 25.1019 21.4838 25.2156 21.5309C25.3294 21.578 25.4513 21.6022 25.5744 21.6022C25.6975 21.6022 25.8194 21.578 25.9332 21.5309C26.0469 21.4838 26.1503 21.4147 26.2373 21.3276C26.3244 21.2406 26.3935 21.1372 26.4406 21.0235C26.4877 20.9097 26.5119 20.7878 26.5119 20.6647C26.5119 20.5416 26.4877 20.4197 26.4406 20.3059C26.3935 20.1922 26.3244 20.0888 26.2373 20.0018ZM27.5631 17.1734C27.6502 17.0863 27.7192 16.983 27.7663 16.8692C27.8134 16.7555 27.8377 16.6336 27.8377 16.5105C27.8377 16.3873 27.8134 16.2654 27.7663 16.1517C27.7192 16.0379 27.6502 15.9346 27.5631 15.8475C27.476 15.7605 27.3727 15.6914 27.2589 15.6443C27.1452 15.5972 27.0233 15.5729 26.9002 15.5729C26.777 15.5729 26.6551 15.5972 26.5414 15.6443C26.4276 15.6914 26.3243 15.7605 26.2372 15.8475C26.0614 16.0233 25.9626 16.2618 25.9626 16.5105C25.9626 16.7591 26.0614 16.9976 26.2372 17.1734C26.413 17.3492 26.6515 17.448 26.9002 17.448C27.1488 17.448 27.3873 17.3492 27.5631 17.1734ZM20.4921 23.1838C20.405 23.2708 20.336 23.3742 20.2889 23.4879C20.2418 23.6017 20.2175 23.7236 20.2175 23.8467C20.2175 23.9698 20.2418 24.0917 20.2889 24.2055C20.336 24.3192 20.405 24.4226 20.4921 24.5096C20.5792 24.5967 20.6825 24.6658 20.7963 24.7129C20.91 24.76 21.0319 24.7842 21.155 24.7842C21.2782 24.7842 21.4001 24.76 21.5138 24.7129C21.6276 24.6658 21.7309 24.5967 21.818 24.5096C21.9938 24.3338 22.0926 24.0954 22.0926 23.8467C22.0926 23.5981 21.9938 23.3596 21.818 23.1838C21.6422 23.0079 21.4037 22.9092 21.155 22.9092C20.9064 22.9092 20.6679 23.0079 20.4921 23.1838ZM12.3526 43.7596C12.474 43.739 12.5901 43.6946 12.6943 43.6291C12.7986 43.5636 12.8889 43.4782 12.9601 43.3777C13.0313 43.2773 13.0821 43.1638 13.1094 43.0438C13.1368 42.9238 13.1403 42.7995 13.1196 42.6781C13.099 42.5568 13.0546 42.4406 12.9891 42.3364C12.9235 42.2322 12.8381 42.1419 12.7377 42.0707C12.6373 41.9994 12.5238 41.9487 12.4038 41.9213C12.2837 41.894 12.1595 41.8905 12.0381 41.9111C11.793 41.9528 11.5745 42.0902 11.4306 42.293C11.2868 42.4959 11.2294 42.7475 11.2711 42.9926C11.3128 43.2378 11.4502 43.4563 11.653 43.6001C11.8558 43.744 12.1075 43.8013 12.3526 43.7596ZM17.135 42.0584C17.3801 42.0167 17.5986 41.8793 17.7425 41.6765C17.8863 41.4737 17.9437 41.222 17.902 40.9769C17.8603 40.7318 17.7229 40.5132 17.5201 40.3694C17.3173 40.2256 17.0656 40.1682 16.8205 40.2099C16.6991 40.2305 16.583 40.2749 16.4788 40.3404C16.3745 40.4059 16.2842 40.4914 16.213 40.5918C16.1418 40.6922 16.091 40.8057 16.0637 40.9257C16.0363 41.0458 16.0328 41.17 16.0535 41.2914C16.0741 41.4128 16.1185 41.5289 16.184 41.6331C16.2495 41.7373 16.3349 41.8277 16.4354 41.8989C16.6382 42.0427 16.8898 42.1001 17.135 42.0584ZM14.5134 38.5738C14.6347 38.5531 14.7508 38.5088 14.8551 38.4432C14.9593 38.3777 15.0496 38.2923 15.1208 38.1919C15.1921 38.0914 15.2428 37.978 15.2702 37.8579C15.2975 37.7379 15.301 37.6136 15.2804 37.4923C15.2597 37.3709 15.2153 37.2548 15.1498 37.1505C15.0843 37.0463 14.9989 36.956 14.8985 36.8848C14.798 36.8136 14.6846 36.7628 14.5645 36.7354C14.4445 36.7081 14.3202 36.7046 14.1989 36.7253C13.9537 36.767 13.7352 36.9043 13.5914 37.1072C13.4475 37.31 13.3901 37.5616 13.4319 37.8068C13.4736 38.0519 13.6109 38.2704 13.8138 38.4142C14.0166 38.5581 14.2682 38.6155 14.5134 38.5738ZM15.1799 45.64C15.2216 45.8851 15.3589 46.1037 15.5618 46.2475C15.7646 46.3913 16.0162 46.4487 16.2614 46.407C16.5065 46.3653 16.725 46.2279 16.8688 46.0251C17.0127 45.8223 17.0701 45.5706 17.0284 45.3255C16.9866 45.0804 16.8493 44.8619 16.6465 44.718C16.4436 44.5742 16.192 44.5168 15.9469 44.5585C15.7017 44.6002 15.4832 44.7376 15.3394 44.9404C15.1955 45.1432 15.1381 45.3949 15.1799 45.64ZM40.8228 38.2879C40.9462 38.2918 41.0691 38.2714 41.1846 38.2277C41.3 38.184 41.4057 38.118 41.4956 38.0334C41.5854 37.9487 41.6577 37.8472 41.7082 37.7346C41.7587 37.622 41.7865 37.5005 41.79 37.3771C41.7934 37.2537 41.7725 37.1309 41.7283 37.0156C41.6842 36.9004 41.6177 36.7949 41.5328 36.7054C41.4478 36.6159 41.346 36.544 41.2331 36.494C41.1203 36.4439 40.9987 36.4166 40.8753 36.4136C40.6274 36.4077 40.3872 36.5002 40.2074 36.6709C40.0275 36.8417 39.9226 37.0767 39.9157 37.3246C39.9087 37.5725 40.0003 37.8131 40.1703 37.9936C40.3404 38.1741 40.575 38.28 40.8228 38.2879ZM45.8453 37.5531C45.9687 37.5571 46.0916 37.5366 46.2071 37.493C46.3225 37.4493 46.4282 37.3832 46.5181 37.2986C46.6079 37.214 46.6802 37.1125 46.7307 36.9998C46.7812 36.8872 46.809 36.7657 46.8125 36.6424C46.8159 36.519 46.795 36.3961 46.7508 36.2809C46.7067 36.1656 46.6402 36.0602 46.5553 35.9707C46.4703 35.8812 46.3685 35.8093 46.2556 35.7592C46.1428 35.7092 46.0212 35.6819 45.8978 35.6789C45.6499 35.6729 45.4097 35.7654 45.2299 35.9362C45.05 36.1069 44.9451 36.342 44.9382 36.5899C44.9313 36.8378 45.0228 37.0783 45.1928 37.2589C45.3629 37.4394 45.5975 37.5452 45.8453 37.5531ZM43.9546 33.6238C44.078 33.6277 44.2009 33.6073 44.3163 33.5636C44.4318 33.5199 44.5375 33.4539 44.6273 33.3692C44.7172 33.2846 44.7894 33.1831 44.8399 33.0705C44.8905 32.9579 44.9183 32.8364 44.9217 32.713C44.9252 32.5896 44.9042 32.4668 44.8601 32.3515C44.8159 32.2362 44.7495 32.1308 44.6645 32.0413C44.5795 31.9518 44.4777 31.8799 44.3649 31.8299C44.2521 31.7798 44.1305 31.7525 44.0071 31.7495C43.7592 31.7436 43.519 31.8361 43.3391 32.0068C43.1593 32.1776 43.0544 32.4126 43.0474 32.6605C43.0405 32.9084 43.1321 33.1489 43.3021 33.3295C43.4721 33.51 43.7067 33.6158 43.9546 33.6238ZM49.3877 44.8653C49.4763 44.7785 49.5468 44.6751 49.5951 44.561C49.6435 44.4468 49.6687 44.3242 49.6693 44.2003C49.67 44.0763 49.646 43.9535 49.5989 43.8389C49.5518 43.7242 49.4823 43.6201 49.3947 43.5324C49.307 43.4448 49.2029 43.3754 49.0882 43.3283C48.9736 43.2811 48.8507 43.2572 48.7268 43.2579C48.6028 43.2586 48.4802 43.2838 48.3661 43.3322C48.252 43.3805 48.1485 43.451 48.0618 43.5396C47.8891 43.7161 47.793 43.9536 47.7944 44.2005C47.7957 44.4474 47.8944 44.6838 48.069 44.8584C48.2436 45.0329 48.48 45.1316 48.7269 45.1329C48.9739 45.1342 49.2113 45.038 49.3877 44.8653ZM54.8678 43.6279C54.9549 43.5408 55.024 43.4375 55.0711 43.3237C55.1182 43.21 55.1424 43.0881 55.1424 42.965C55.1424 42.8418 55.1182 42.7199 55.0711 42.6062C55.024 42.4924 54.9549 42.3891 54.8678 42.302C54.7808 42.215 54.6774 42.1459 54.5637 42.0988C54.4499 42.0517 54.328 42.0274 54.2049 42.0274C54.0818 42.0274 53.9599 42.0517 53.8461 42.0988C53.7324 42.1459 53.629 42.215 53.542 42.302C53.3661 42.4778 53.2674 42.7163 53.2674 42.965C53.2674 43.2136 53.3661 43.4521 53.542 43.6279C53.7178 43.8037 53.9563 43.9025 54.2049 43.9025C54.4536 43.9025 54.692 43.8037 54.8678 43.6279Z" fill="white"/>
<path d="M62.1789 49.8715C62.3279 49.3987 62.2418 48.8777 61.9485 48.478C61.6553 48.0782 61.1843 47.8396 60.6885 47.8396H58.6647L60.0794 40.8921C60.1728 40.4368 60.1515 39.9654 60.0176 39.5204C59.8837 39.0753 59.6413 38.6705 59.3122 38.3423C58.984 38.0132 58.5792 37.7708 58.1341 37.6368C57.689 37.5029 57.2176 37.4816 56.7623 37.575L53.7022 38.1981L46.8252 27.144C46.5802 26.749 46.2409 26.421 45.8378 26.1896C45.4347 25.9582 44.9804 25.8306 44.5158 25.8182C44.0511 25.8043 43.5903 25.9062 43.1748 26.1147C42.7594 26.3232 42.4023 26.6318 42.1358 27.0127L34.7888 37.4686C34.0472 37.1527 33.2448 36.9826 32.4294 36.9826C30.907 36.9826 29.428 37.5702 28.3099 38.6076H27.8044C26.3305 38.6076 24.9885 39.1785 23.9849 40.1096L16.0634 31.6581C15.4162 30.9677 14.4727 30.65 13.5397 30.8088C12.6067 30.9677 11.8213 31.5792 11.4388 32.4448L4.63792 47.8395H3.60117C3.10542 47.8395 2.63442 48.0781 2.34117 48.4778C2.04792 48.8776 1.9618 49.3986 2.1108 49.8713L4.68705 58.0508L4.6903 58.0613L6.21642 62.907C6.3154 63.2245 6.51351 63.502 6.7817 63.6987C7.0499 63.8954 7.37406 64.001 7.70667 64.0001H56.5828C56.9154 64.001 57.2396 63.8954 57.5078 63.6987C57.776 63.502 57.9741 63.2245 58.073 62.907L59.599 58.0617L59.6027 58.0505L62.1789 49.8715ZM57.1365 39.4122C57.4503 39.3476 57.76 39.4415 57.9865 39.668C58.2129 39.8945 58.3062 40.2041 58.2423 40.518L56.7514 47.8395H53.4777C53.4995 47.8212 53.5209 47.8023 53.5414 47.7818C53.6725 47.6507 53.7618 47.4837 53.798 47.3018C53.8341 47.12 53.8156 46.9315 53.7446 46.7602C53.6737 46.5889 53.5535 46.4425 53.3993 46.3394C53.2452 46.2364 53.0639 46.1814 52.8785 46.1814C52.6931 46.1814 52.5118 46.2364 52.3576 46.3394C52.2035 46.4425 52.0833 46.5889 52.0124 46.7602C51.9414 46.9315 51.9228 47.12 51.959 47.3018C51.9952 47.4837 52.0844 47.6507 52.2155 47.7818C52.236 47.8023 52.2574 47.8212 52.2793 47.8395H43.5937L44.575 44.4136H44.8673C45.385 44.4136 45.8048 43.994 45.8048 43.4761C45.8048 42.9582 45.385 42.5386 44.8673 42.5386H42.4164C42.4037 42.4982 42.3904 42.4579 42.3767 42.4178L57.1365 39.4122ZM23.1505 47.8395L22.1692 44.4136H42.6245L41.6432 47.8395H23.1505ZM43.6702 28.0903C43.8542 27.8283 44.1433 27.6858 44.4634 27.6922C44.7835 27.7012 45.0642 27.8622 45.2333 28.1342L51.7424 38.597L41.4253 40.6978C40.3937 39.4237 38.8183 38.6073 37.0547 38.6073H36.5492C36.4949 38.5571 36.4392 38.5087 36.3834 38.4606L43.6702 28.0903ZM27.8047 40.4823H28.6962C28.8243 40.4823 28.9511 40.4561 29.0687 40.4052C29.1862 40.3543 29.2921 40.2798 29.3798 40.1863C30.1839 39.3293 31.267 38.8573 32.4297 38.8573C33.5923 38.8573 34.6754 39.3292 35.4795 40.1863C35.5672 40.2798 35.6731 40.3543 35.7907 40.4052C35.9083 40.4561 36.035 40.4823 36.1632 40.4823H37.0547C38.5132 40.4823 39.7794 41.3196 40.3993 42.5385H24.46C25.0799 41.3197 26.3462 40.4823 27.8047 40.4823ZM13.154 33.2022C13.2834 32.9095 13.5387 32.7106 13.8543 32.657C14.1703 32.6037 14.4767 32.7065 14.6955 32.9401L22.8283 41.617C22.6726 41.9121 22.5437 42.2205 22.4429 42.5386H19.992C19.4743 42.5386 19.0545 42.9582 19.0545 43.4761C19.0545 43.994 19.4743 44.4136 19.992 44.4136H20.2187L21.2 47.8395H10.8712C10.9753 47.6533 11.0125 47.437 10.9765 47.2267C10.9318 46.9844 10.7935 46.7695 10.5915 46.6284C10.3895 46.4873 10.1401 46.4313 9.89725 46.4727C9.65436 46.514 9.43749 46.6493 9.29355 46.8492C9.1496 47.0492 9.09015 47.2978 9.12805 47.5412C9.14642 47.6492 9.18342 47.749 9.2338 47.8395H6.68767L13.154 33.2022ZM56.3538 62.1252H7.93605L6.8618 58.7146H43.7699C44.2877 58.7146 44.7074 58.295 44.7074 57.7771C44.7074 57.2592 44.2877 56.8396 43.7699 56.8396H6.2713L4.02717 49.7145H60.2625L58.0184 56.8396H48.2699C47.7522 56.8396 47.3324 57.2592 47.3324 57.7771C47.3324 58.295 47.7522 58.7146 48.2699 58.7146H57.4279L56.3538 62.1252ZM37.3457 20.8758C37.4467 21.374 37.681 21.8355 38.0236 22.2109C38.3663 22.5864 38.8044 22.8619 39.2913 23.008C39.7779 23.1548 40.2953 23.1668 40.7882 23.0427C41.2811 22.9187 41.7312 22.6632 42.0903 22.3035L49.8078 14.586C49.9823 14.4099 50.08 14.1718 50.0795 13.9239C50.079 13.676 49.9803 13.4384 49.805 13.263C49.6297 13.0877 49.392 12.989 49.1441 12.9884C48.8962 12.9879 48.6581 13.0855 48.482 13.2601L40.7645 20.9776C40.4069 21.3355 39.9928 21.2611 39.8315 21.2125C39.6702 21.164 39.2839 20.9975 39.183 20.5018L35.619 3.00033C35.5552 2.68646 35.6484 2.37683 35.8748 2.15033C36.1014 1.92383 36.4112 1.83033 36.7248 1.89458L54.2262 5.45846C54.7219 5.55933 54.8883 5.94546 54.9369 6.10696C54.9855 6.26833 55.0598 6.68233 54.7022 7.03996L51.732 10.0101C51.5575 10.1862 51.4598 10.4242 51.4603 10.6721C51.4609 10.9201 51.5596 11.1577 51.7349 11.333C51.9102 11.5083 52.1478 11.6071 52.3957 11.6076C52.6437 11.6082 52.8817 11.5105 53.0578 11.336L56.0279 8.36571C56.3876 8.00656 56.6432 7.55652 56.7672 7.06357C56.8913 6.57061 56.8793 6.05323 56.7324 5.56658C56.5863 5.07974 56.3109 4.64167 55.9354 4.29905C55.56 3.95644 55.0986 3.72212 54.6004 3.62108L37.0989 0.0572089C36.6436 -0.036193 36.1722 -0.0149657 35.7271 0.118982C35.282 0.25293 34.8772 0.495398 34.549 0.824584C34.22 1.15278 33.9776 1.55759 33.8437 2.00264C33.7098 2.44769 33.6885 2.91904 33.7818 3.37433L37.3457 20.8758Z" fill="white"/>
<path d="M49.5148 8.3724C50.0325 8.3724 50.4523 7.95266 50.4523 7.4349C50.4523 6.91713 50.0325 6.4974 49.5148 6.4974C48.997 6.4974 48.5773 6.91713 48.5773 7.4349C48.5773 7.95266 48.997 8.3724 49.5148 8.3724Z" fill="white"/>
<path d="M41.0714 12.0753C41.2472 11.8994 41.346 11.661 41.346 11.4123C41.346 11.1637 41.2472 10.9252 41.0714 10.7494C40.8955 10.5736 40.6571 10.4748 40.4084 10.4748C40.1598 10.4748 39.9213 10.5736 39.7455 10.7494C39.5697 10.9252 39.4709 11.1637 39.4709 11.4123C39.4709 11.661 39.5697 11.8994 39.7455 12.0753C39.9213 12.2511 40.1598 12.3499 40.4084 12.3499C40.6571 12.3499 40.8955 12.2511 41.0714 12.0753ZM41.9552 17.025C42.1311 16.8492 42.2298 16.6107 42.2298 16.3621C42.2298 16.1134 42.1311 15.875 41.9552 15.6991C41.7794 15.5233 41.5409 15.4245 41.2923 15.4245C41.0436 15.4245 40.8052 15.5233 40.6294 15.6991C40.4535 15.875 40.3548 16.1134 40.3548 16.3621C40.3548 16.6107 40.4535 16.8492 40.6294 17.025C40.8052 17.2008 41.0436 17.2996 41.2923 17.2996C41.5409 17.2996 41.7794 17.2008 41.9552 17.025ZM42.6624 6.59526C42.5753 6.68232 42.5062 6.78568 42.4591 6.89942C42.412 7.01317 42.3878 7.13508 42.3878 7.2582C42.3878 7.38132 42.412 7.50323 42.4591 7.61698C42.5062 7.73073 42.5753 7.83408 42.6624 7.92114C42.7494 8.0082 42.8528 8.07726 42.9665 8.12437C43.0803 8.17149 43.2022 8.19574 43.3253 8.19574C43.4484 8.19574 43.5703 8.17149 43.6841 8.12437C43.7978 8.07726 43.9012 8.0082 43.9882 7.92114C44.1641 7.74532 44.2628 7.50685 44.2628 7.2582C44.2628 7.00955 44.1641 6.77109 43.9882 6.59526C43.8124 6.41944 43.5739 6.32067 43.3253 6.32067C43.0766 6.32067 42.8382 6.41944 42.6624 6.59526ZM39.834 5.26939C39.7469 5.18233 39.6436 5.11327 39.5298 5.06616C39.4161 5.01904 39.2942 4.99479 39.171 4.99479C39.0479 4.99479 38.926 5.01904 38.8123 5.06616C38.6985 5.11327 38.5952 5.18233 38.5081 5.26939C38.421 5.35645 38.352 5.4598 38.3049 5.57355C38.2578 5.68729 38.2335 5.80921 38.2335 5.93233C38.2335 6.05545 38.2578 6.17736 38.3049 6.29111C38.352 6.40485 38.421 6.50821 38.5081 6.59526C38.6839 6.77109 38.9224 6.86986 39.171 6.86986C39.4197 6.86986 39.6582 6.77109 39.834 6.59526C40.0098 6.41944 40.1086 6.18098 40.1086 5.93233C40.1086 5.68368 40.0098 5.44521 39.834 5.26939ZM45.8444 11.0146C45.7573 11.1017 45.6882 11.2051 45.6411 11.3188C45.594 11.4325 45.5698 11.5545 45.5698 11.6776C45.5698 11.8007 45.594 11.9226 45.6411 12.0364C45.6882 12.1501 45.7573 12.2535 45.8444 12.3405C45.9314 12.4276 46.0348 12.4966 46.1485 12.5437C46.2623 12.5909 46.3842 12.6151 46.5073 12.6151C46.6304 12.6151 46.7523 12.5909 46.8661 12.5437C46.9798 12.4966 47.0832 12.4276 47.1702 12.3405C47.3461 12.1647 47.4448 11.9262 47.4448 11.6776C47.4448 11.4289 47.3461 11.1905 47.1702 11.0146C46.9944 10.8388 46.7559 10.74 46.5073 10.74C46.2586 10.74 46.0202 10.8388 45.8444 11.0146Z" fill="white"/>
</g>
<defs>
<clipPath id="clip0_4122_6539">
<rect width="64" height="64" fill="white" transform="translate(0.142578)"/>
</clipPath>
</defs>
</svg>
