<svg width="64" height="58" viewBox="0 0 64 58" fill="none" xmlns="http://www.w3.org/2000/svg">
<path d="M28.2428 52.5772C28.4417 52.5772 28.6325 52.4981 28.7732 52.3575C28.9138 52.2168 28.9928 52.0261 28.9928 51.8272V48.7534C28.9928 48.5545 28.9138 48.3637 28.7732 48.2231C28.6325 48.0824 28.4417 48.0034 28.2428 48.0034C28.0439 48.0034 27.8531 48.0824 27.7125 48.2231C27.5718 48.3637 27.4928 48.5545 27.4928 48.7534V51.8272C27.4928 52.0261 27.5718 52.2168 27.7125 52.3575C27.8531 52.4981 28.0439 52.5772 28.2428 52.5772Z" fill="#161915"/>
<path d="M2.50674 51.9481H2.52012L3.44862 51.9314C3.04981 52.2111 2.75751 52.6177 2.61936 53.0847C2.48121 53.5518 2.50536 54.052 2.68787 54.5036C2.90334 55.0354 3.3208 55.4602 3.84882 55.6848C4.37684 55.9095 4.97238 55.9157 5.50499 55.7022L9.80887 53.9761C10.3168 54.7861 10.9611 55.502 11.7132 56.0922C12.9434 57.0639 14.4336 57.6498 15.9961 57.7762L52.5516 52.6762C53.0276 52.6051 53.4772 52.4125 53.8571 52.1171C54.2371 51.8217 54.5344 51.4334 54.7206 50.9896C57.009 49.8253 58.9438 48.0694 60.324 45.9043C60.4315 45.7368 60.4681 45.5334 60.4257 45.3389C60.3833 45.1444 60.2653 44.9747 60.0978 44.8671C59.9303 44.7596 59.7269 44.723 59.5324 44.7654C59.3379 44.8078 59.1682 44.9258 59.0606 45.0933C57.9948 46.7712 56.5524 48.1774 54.8481 49.2003C54.7108 48.674 54.4215 48.1998 54.0162 47.837C53.611 47.4742 53.1078 47.2388 52.5696 47.1602L34.2259 44.3883C33.3929 42.6333 32.9666 39.9343 32.905 37.9405C35.5077 35.339 36.3634 32.7065 36.5889 30.799C36.6706 30.1074 36.6837 29.4095 36.6277 28.7153C37.929 27.4504 39.4569 26.4421 41.1316 25.7431C41.948 26.6886 43.0215 27.3998 44.3426 27.8672C43.642 28.2036 42.9634 28.5841 42.311 29.0065C40.8235 29.9696 40.7397 31.2627 40.8221 31.9476C40.8457 32.1496 40.916 32.3433 41.0275 32.5133C41.139 32.6834 41.2886 32.8251 41.4644 32.9272C41.6403 33.0294 41.8375 33.0892 42.0404 33.1019C42.2434 33.1145 42.4465 33.0797 42.6336 33.0002C43.5281 32.6213 44.5064 32.4844 45.4705 32.6031C47.0289 32.8071 48.1696 32.335 48.9106 31.8281C49.3513 32.9683 50.2013 33.9032 51.2945 34.4502C52.1495 34.9076 52.8686 35.5824 53.3792 36.4067C53.4847 36.5794 53.6292 36.7249 53.8011 36.8316C53.973 36.9382 54.1676 37.0031 54.3691 37.0208C54.4106 37.0246 54.452 37.0266 54.493 37.0266C54.6766 37.0267 54.8582 36.9882 55.0259 36.9135C55.1936 36.8387 55.3436 36.7295 55.4663 36.5928C55.9301 36.0811 56.6104 34.977 55.9538 33.3335C55.6657 32.6125 55.3319 31.9107 54.9545 31.2323C56.317 31.616 57.6184 31.6512 58.8431 31.3401C60.7464 33.9678 61.4369 36.9125 60.9056 40.1223C60.8874 40.2299 60.8929 40.3401 60.9217 40.4453C60.9505 40.5505 61.0019 40.6481 61.0723 40.7314C61.1427 40.8147 61.2304 40.8817 61.3294 40.9276C61.4283 40.9735 61.5361 40.9973 61.6451 40.9973H61.6469C61.8236 40.9978 61.9949 40.9358 62.1303 40.8222C62.2658 40.7086 62.3566 40.5507 62.3869 40.3766C62.9731 36.8931 62.2716 33.6807 60.2923 30.7923C61.3122 30.259 62.201 29.5059 62.8945 28.5873C63.0174 28.4258 63.0856 28.2293 63.0894 28.0263C63.0932 27.8234 63.0323 27.6245 62.9155 27.4584C62.7987 27.2924 62.6322 27.1678 62.4399 27.1027C62.2476 27.0377 62.0396 27.0355 61.846 27.0965C61.1001 27.33 59.6742 27.5638 58.5064 26.5042C56.6205 24.7931 54.6964 24.6687 53.4689 24.8376C53.6733 23.7646 53.7831 22.6758 53.7969 21.5836C55.2336 21.3262 56.5381 20.5827 57.4917 19.4777C57.535 19.4272 57.5776 19.3757 57.6195 19.3232C59.4705 17.0063 58.9466 13.333 56.4755 11.3018C56.3185 11.177 56.1881 11.022 56.0919 10.8461L56.0744 10.813C55.9713 10.6104 55.9121 10.3883 55.9009 10.1613C55.8896 9.93422 55.9265 9.70737 56.0091 9.49559C57.1114 6.56009 56.3261 3.26809 54.0996 1.49022C51.7697 -0.370282 48.4667 -0.411657 45.8804 1.38722C45.5794 1.60002 45.2065 1.68537 44.8429 1.62472C44.6533 1.5902 44.4724 1.51881 44.3104 1.41459C41.7505 -0.186532 38.4479 0.304592 36.6285 2.55659C36.5864 2.60884 36.5451 2.66159 36.5054 2.71447C35.9186 3.48768 35.5449 4.40123 35.4215 5.36398C35.2981 6.32672 35.4293 7.30501 35.802 8.20121C36.1735 9.11628 36.772 9.92158 37.5411 10.5411C37.6536 11.326 37.8516 13.9013 36.3062 17.1792C36.2161 17.0775 36.1312 16.9867 36.0527 16.9082C37.1027 13.8361 36.3039 10.6347 33.7226 7.61659C32.6398 6.3453 31.1229 5.52219 29.4669 5.30733C27.8109 5.09247 26.1341 5.50122 24.7627 6.45409C21.5274 8.68984 19.9325 11.5441 20.1197 14.7416C18.5431 15.3346 16.3697 16.839 15.858 19.5541C14.0205 17.3067 11.1787 16.2208 7.55274 16.4012C5.88552 16.4775 4.3067 17.1729 3.12493 18.3514C1.94317 19.5299 1.24342 21.1068 1.16249 22.7738C0.965492 26.6972 2.26449 29.7002 4.92512 31.5017C4.64287 32.4642 4.28112 34.4046 5.15549 36.3121C5.92574 37.9926 7.45299 39.234 9.69774 40.0058C10.1931 41.2773 10.8443 42.4823 11.6365 43.5933C10.9301 44.1605 10.3209 44.8389 9.83274 45.6021L5.50499 43.8658C4.97234 43.6528 4.37701 43.6593 3.84912 43.8839C3.32124 44.1085 2.90374 44.5329 2.68787 45.0645C2.50498 45.5179 2.48143 46.0199 2.62106 46.4885C2.76069 46.957 3.05524 47.3643 3.45649 47.6436L2.52224 47.6243H2.50674C2.21868 47.6178 1.93221 47.6688 1.66417 47.7745C1.39612 47.8802 1.15189 48.0384 0.945841 48.2398C0.739789 48.4412 0.576064 48.6818 0.464284 48.9473C0.352503 49.2129 0.294922 49.4981 0.294922 49.7863C0.294922 50.0744 0.352503 50.3596 0.464284 50.6252C0.576064 50.8908 0.739789 51.1313 0.945841 51.3327C1.15189 51.5341 1.39612 51.6923 1.66417 51.798C1.93221 51.9037 2.21868 51.9546 2.50674 51.9481ZM57.4981 27.614C58.3484 28.3994 59.4706 28.8239 60.6279 28.7978C59.3219 29.8708 57.2335 30.6833 54.2174 29.3778C54.0171 29.2906 53.794 29.2706 53.5814 29.3208C53.3688 29.3711 53.1783 29.4889 53.0383 29.6565C52.8983 29.8242 52.8164 30.0328 52.8049 30.2509C52.7935 30.469 52.853 30.685 52.9746 30.8665C53.6074 31.8159 54.1391 32.8291 54.5609 33.8893C54.7966 34.4793 54.7796 34.9723 54.5075 35.3883C53.87 34.436 53.0056 33.6572 51.9922 33.122C50.2841 32.2242 50.1257 30.7147 50.1112 30.422C50.1036 30.2624 50.0469 30.109 49.949 29.9828C49.851 29.8566 49.7165 29.7636 49.5638 29.7166C49.4112 29.6695 49.2477 29.6707 49.0957 29.7199C48.9437 29.7691 48.8105 29.864 48.7144 29.9916C48.5394 30.2232 47.5717 31.3666 45.6651 31.1166C44.5277 30.9701 43.3716 31.1081 42.3006 31.5183C42.3206 31.0233 42.5926 30.612 43.1264 30.2663C44.0851 29.6434 45.1063 29.1223 46.1732 28.7115C46.3774 28.6336 46.5508 28.4916 46.6674 28.3069C46.784 28.1221 46.8376 27.9045 46.82 27.6867C46.8025 27.469 46.7148 27.2628 46.5701 27.0991C46.4254 26.9353 46.2315 26.823 46.0175 26.7788C42.798 26.1078 41.5647 24.2413 41.1211 22.6131C42.0531 23.3023 43.2163 23.6028 44.3655 23.4513C45.6861 23.2888 46.8436 23.4675 47.8059 23.9816C48.128 24.1511 48.425 24.3647 48.6883 24.6161C48.6124 25.3591 48.5181 25.9967 48.4414 26.4161C48.4108 26.6094 48.457 26.8071 48.5702 26.9668C48.6834 27.1265 48.8545 27.2356 49.047 27.2709C49.2395 27.3062 49.4382 27.2648 49.6007 27.1556C49.7631 27.0464 49.8764 26.878 49.9164 26.6863C49.9601 26.4473 50.957 20.892 49.6642 18.0711C50.053 17.9772 50.4355 17.8593 50.8095 17.7178C51.1041 17.6055 51.4055 17.5121 51.7119 17.4381C52.2316 18.3686 52.9425 23.3546 51.0805 27.5148C51.0389 27.6049 51.0155 27.7024 51.0118 27.8016C51.0081 27.9008 51.0242 27.9998 51.059 28.0927C51.0938 28.1857 51.1468 28.2708 51.2148 28.3431C51.2827 28.4155 51.3644 28.4736 51.455 28.5141C51.5456 28.5547 51.6434 28.5768 51.7426 28.5793C51.8419 28.5817 51.9406 28.5645 52.0331 28.5285C52.1256 28.4925 52.2101 28.4385 52.2816 28.3697C52.3531 28.3008 52.4102 28.2184 52.4496 28.1273C52.693 27.5808 52.901 27.0192 53.0725 26.4461C53.7732 26.2433 55.6441 25.9318 57.4981 27.614ZM45.2405 21.895C46.2467 21.0686 47.434 20.4917 48.7055 20.2115C48.8151 21.0797 48.8505 21.9557 48.8114 22.83C48.0247 22.3465 46.8505 21.8877 45.2405 21.895ZM37.1905 7.63371C36.912 6.9788 36.8126 6.26159 36.9027 5.55562C36.9928 4.84966 37.269 4.18036 37.703 3.61634C37.7327 3.57684 37.7633 3.53767 37.7946 3.49884C39.1159 1.86359 41.6282 1.50672 43.5144 2.68634C43.8424 2.89471 44.2083 3.03648 44.5911 3.10359C45.342 3.23081 46.1128 3.05661 46.736 2.61884C48.7735 1.20209 51.3558 1.21972 53.1628 2.66259C54.8877 4.04022 55.4808 6.63347 54.604 8.96859C54.447 9.37863 54.3785 9.81725 54.403 10.2556C54.4276 10.694 54.5446 11.1223 54.7464 11.5122L54.7639 11.5453C54.9528 11.8981 55.2106 12.2094 55.522 12.4608C57.3419 13.9566 57.774 16.726 56.447 18.3868C56.4156 18.4261 56.3845 18.4646 56.3514 18.5025C55.6722 19.2844 54.7632 19.8317 53.7544 20.0662C53.6567 18.6696 53.4044 17.5312 53.105 16.8855C52.8714 16.3816 52.5807 16.0855 52.2166 15.9803C51.6706 15.8222 51.0396 16.0457 50.3089 16.3043C50.0788 16.3857 49.844 16.4687 49.6269 16.5326C49.0677 15.8395 49.2172 15.1563 49.3269 15.0157C49.4381 14.8831 49.5116 14.7231 49.5396 14.5523C49.5677 14.3816 49.5493 14.2064 49.4864 14.0452C49.4235 13.884 49.3184 13.7427 49.1821 13.6361C49.0458 13.5294 48.8834 13.4615 48.7118 13.4392C45.6751 13.0398 44.6517 11.13 44.3117 10.0267C44.2599 9.85926 44.1635 9.70907 44.0328 9.59223C43.9021 9.47539 43.7421 9.39631 43.5699 9.36345C43.3977 9.3306 43.2199 9.34521 43.0553 9.40572C42.8908 9.46623 42.7459 9.57037 42.636 9.70696C42.3447 10.0673 41.7502 10.4597 40.5724 10.282C39.8263 10.1747 39.1215 9.87377 38.5281 9.40909C37.9347 8.94441 37.4735 8.33227 37.1905 7.63371ZM47.828 16.2517L45.3937 16.4457L47.0747 14.6112C47.3065 14.6845 47.5505 14.7488 47.8069 14.8043C47.6887 15.2805 47.696 15.7792 47.828 16.2517ZM43.6797 12.1316L41.9262 14.3191L42.0026 11.7345C42.4217 11.6456 42.8193 11.4753 43.1727 11.2332C43.3173 11.5459 43.4866 11.8463 43.6797 12.1316ZM39.1129 11.4395C39.5123 11.5921 39.9269 11.7014 40.3496 11.7656C40.4009 11.7732 40.4504 11.7788 40.5005 11.785L40.4035 15.0657C40.3954 15.3248 40.469 15.5798 40.6139 15.7947C40.7588 16.0096 40.9677 16.1735 41.2109 16.263C41.4541 16.3526 41.7194 16.3633 41.9691 16.2937C42.2188 16.2241 42.4402 16.0777 42.602 15.8752L44.6835 13.2786C44.9761 13.5383 45.2927 13.7697 45.6291 13.9695L44.1405 15.5945C43.9552 15.7967 43.8328 16.0485 43.7881 16.319C43.7433 16.5896 43.7782 16.8674 43.8885 17.1185C43.9989 17.3696 44.1798 17.5832 44.4093 17.7333C44.6389 17.8834 44.9071 17.9636 45.1814 17.964C45.2192 17.964 45.2572 17.9624 45.2955 17.9593L48.1339 17.7331C48.0775 18.0294 48.1208 18.3361 48.257 18.6052C48.2814 18.6536 48.3039 18.7052 48.3265 18.7562C46.2871 19.211 44.4509 20.3166 43.0949 21.9062C42.1901 21.6911 41.5372 21.08 41.1132 20.5246C40.9902 20.3633 40.8192 20.2453 40.6247 20.1875C40.4303 20.1298 40.2225 20.1353 40.0314 20.2034C39.8403 20.2714 39.6758 20.3984 39.5616 20.566C39.4474 20.7336 39.3894 20.9332 39.396 21.136C39.4303 22.3029 39.7285 23.4468 40.2682 24.482C38.8416 25.1115 37.5144 25.9459 36.3287 26.9587C36.3039 26.8666 36.2775 26.7749 36.2494 26.6837C37.0165 25.5275 37.7445 24.0513 37.9416 22.4296C40.0695 20.3641 40.6541 17.5192 40.6782 17.3956L39.207 17.1028C38.9402 18.2099 38.4804 19.2612 37.8485 20.2086C37.729 19.6479 37.5353 19.1056 37.2724 18.5961C38.8885 15.5717 39.149 12.9783 39.1129 11.4395ZM21.1064 15.9991C21.2843 15.9542 21.4397 15.8455 21.5429 15.6938C21.6462 15.542 21.6902 15.3576 21.6666 15.1756C21.2916 12.2772 22.6199 9.75796 25.6156 7.68809C26.6819 6.94708 27.9857 6.62912 29.2734 6.79604C30.5611 6.96296 31.7407 7.60283 32.5829 8.59121C34.9472 11.3561 35.585 14.1301 34.4784 16.8362C34.4159 16.9891 34.4056 17.1583 34.4491 17.3176C34.4926 17.4769 34.5875 17.6175 34.719 17.7173C35.3793 18.2899 35.8836 19.0205 36.185 19.8408C36.8809 21.73 36.4162 23.8493 34.8037 26.1408C34.7307 26.2446 34.6852 26.3652 34.6714 26.4913C34.6577 26.6175 34.6761 26.745 34.7251 26.8621C34.7315 26.8773 35.3605 28.413 35.0991 30.6246C34.7937 33.2078 33.4421 35.5483 31.0772 37.5996C31.0936 34.5228 30.4312 31.0228 27.9757 28.4382C27.5218 27.9599 27.0199 27.5294 26.478 27.1536C26.7291 26.0951 26.9895 25.0536 27.2511 24.0452C28.4076 23.6432 31.6064 22.322 32.608 19.7261C32.6796 19.5404 32.6745 19.3339 32.5939 19.152C32.5133 18.9701 32.3636 18.8277 32.178 18.7561C31.9923 18.6845 31.7859 18.6896 31.6039 18.7702C31.422 18.8508 31.2796 19.0004 31.208 19.1861C30.6237 20.7003 28.933 21.6986 27.7295 22.2407C29.095 17.2032 30.3607 13.3967 30.3776 13.3462C30.4098 13.2526 30.423 13.1535 30.4167 13.0546C30.4103 12.9558 30.3845 12.8593 30.3406 12.7705C30.2967 12.6817 30.2357 12.6025 30.1611 12.5374C30.0864 12.4724 29.9997 12.4227 29.9057 12.3914C29.8118 12.36 29.7126 12.3476 29.6139 12.3547C29.5151 12.3619 29.4187 12.3886 29.3303 12.4332C29.2419 12.4778 29.1632 12.5395 29.0988 12.6147C29.0344 12.6898 28.9854 12.777 28.9549 12.8712C28.9376 12.9227 27.6376 16.832 26.2455 21.9825C25.3691 20.9091 24.2251 18.9557 24.8415 16.5523C24.8909 16.3597 24.8618 16.1552 24.7605 15.984C24.6592 15.8128 24.4941 15.6889 24.3014 15.6395C24.1087 15.59 23.9043 15.6192 23.7331 15.7205C23.5619 15.8218 23.4379 15.9869 23.3885 16.1796C22.4225 19.9463 24.8355 22.7671 25.7895 23.7046C25.5593 24.5913 25.3369 25.4801 25.1224 26.3707C24.8352 26.2352 24.5402 26.1168 24.2391 26.016C23.5097 23.9046 22.06 21.3732 19.2157 20.4835C18.5885 20.2887 17.9363 20.1859 17.2795 20.1783C17.6439 16.9365 20.9572 16.0377 21.1064 15.9991ZM32.4966 44.1276L30.9841 43.8991C30.8626 42.9802 30.7684 41.4078 30.9134 40.1836C30.9359 39.9946 30.9561 39.801 30.9746 39.6045C31.1448 39.4774 31.313 39.3476 31.479 39.2152C31.6227 40.8391 31.9555 42.6393 32.4966 44.1276ZM10.9919 39.1752C10.9548 39.0612 10.891 38.9577 10.8057 38.8735C10.7204 38.7892 10.6162 38.7266 10.5017 38.691C8.49049 38.0643 7.15299 37.0578 6.52462 35.6992C5.59562 33.6892 6.50749 31.5013 6.51587 31.4817C6.589 31.3131 6.59771 31.1236 6.54034 30.949C6.48296 30.7744 6.3635 30.627 6.20462 30.5347C3.67112 29.0627 2.47887 26.4766 2.66074 22.8478C2.724 21.5526 3.26808 20.3275 4.18659 19.4121C5.10511 18.4967 6.33204 17.9567 7.62749 17.8978C11.2695 17.7165 13.865 18.9052 15.3412 21.4313C15.4246 21.5723 15.5515 21.6823 15.7028 21.7448C15.8542 21.8074 16.0217 21.819 16.1802 21.7781C16.3754 21.7275 20.9802 20.6142 22.935 26.8495C22.9749 26.975 23.047 27.088 23.1441 27.1771C23.2411 27.2662 23.3598 27.3283 23.4884 27.3573C23.5066 27.3615 25.3235 27.7883 26.9459 29.531C29.1045 31.8497 29.9616 35.4722 29.4244 40.0066C29.2815 41.2127 29.3446 42.6493 29.4494 43.6667L26.9301 43.2861C26.918 43.0937 26.8318 42.9136 26.6897 42.7833C25.7431 41.917 24.769 40.9438 23.7897 39.9058C24.0837 38.6902 24.7335 35.2261 23.2925 32.8702C23.1882 32.7016 23.0214 32.5812 22.8285 32.5352C22.6357 32.4892 22.4325 32.5215 22.2633 32.6249C22.0942 32.7284 21.9729 32.8946 21.926 33.0872C21.8791 33.2798 21.9103 33.4832 22.0129 33.6528C22.8847 35.0778 22.7522 37.1737 22.5317 38.5412C20.4925 36.2806 18.4719 33.8138 16.6692 31.5078C17.0627 30.3265 17.9432 27.0352 16.4942 24.6655C16.3904 24.4958 16.2235 24.3743 16.0301 24.3277C15.8367 24.2811 15.6327 24.3132 15.4631 24.417C15.2934 24.5208 15.1719 24.6878 15.1253 24.8812C15.0787 25.0745 15.1108 25.2785 15.2146 25.4482C16.0554 26.8232 15.8279 28.7482 15.5271 30.0302C12.3619 25.895 10.1069 22.5996 10.0617 22.5333C10.0063 22.452 9.93529 22.3823 9.85289 22.3284C9.77049 22.2744 9.67826 22.2372 9.58149 22.2189C9.48471 22.2006 9.38528 22.2015 9.28886 22.2216C9.19244 22.2418 9.10093 22.2807 9.01956 22.3361C8.93818 22.3916 8.86852 22.4626 8.81457 22.545C8.76062 22.6274 8.72343 22.7196 8.70512 22.8164C8.68681 22.9132 8.68774 23.0126 8.70786 23.109C8.72797 23.2054 8.76688 23.297 8.82237 23.3783C8.86837 23.4458 11.186 26.8332 14.4349 31.069C13.0481 31.1105 10.7791 30.8302 9.23487 28.8647C9.11197 28.7083 8.93198 28.6071 8.73448 28.5834C8.53698 28.5597 8.33815 28.6154 8.18174 28.7383C8.02533 28.8612 7.92415 29.0412 7.90045 29.2387C7.87675 29.4362 7.93247 29.635 8.05537 29.7915C9.88737 32.1233 12.4795 32.5696 14.1959 32.5696C14.6411 32.57 15.0858 32.5397 15.5269 32.4787C17.3799 34.8471 19.4609 37.3832 21.5606 39.7011C20.108 39.9636 17.583 40.104 15.8064 38.4721C15.7341 38.404 15.649 38.351 15.5561 38.3161C15.4632 38.2812 15.3643 38.265 15.2651 38.2687C15.1659 38.2723 15.0684 38.2955 14.9782 38.3371C14.8881 38.3786 14.8071 38.4377 14.7399 38.5108C14.6728 38.5839 14.6208 38.6696 14.587 38.763C14.5532 38.8563 14.5383 38.9554 14.5432 39.0546C14.548 39.1537 14.5724 39.2509 14.6151 39.3406C14.6578 39.4302 14.7178 39.5105 14.7917 39.5767C16.3244 40.9846 18.2214 41.3656 19.8267 41.3656C20.8102 41.3608 21.7891 41.2299 22.7392 40.9761C23.371 41.6466 24.0174 42.3033 24.6779 42.9456L17.3185 41.8331C17.3023 41.8307 17.286 41.8288 17.2697 41.8273C15.7492 41.7044 14.2259 42.0293 12.8877 42.7618C12.094 41.6591 11.456 40.4522 10.9919 39.1752ZM11.2655 46.1528C12.577 44.2841 14.7976 43.1331 17.1195 43.321L22.6945 44.1633V47.92C22.6945 48.1189 22.7735 48.3096 22.9142 48.4503C23.0548 48.5909 23.2456 48.6699 23.4445 48.6699C23.6434 48.6699 23.8342 48.5909 23.9748 48.4503C24.1155 48.3096 24.1945 48.1189 24.1945 47.92V44.39L39.3954 46.6877V48.8472C39.3954 49.0461 39.4744 49.2369 39.615 49.3775C39.7557 49.5182 39.9465 49.5972 40.1454 49.5972C40.3443 49.5972 40.535 49.5182 40.6757 49.3775C40.8164 49.2369 40.8954 49.0461 40.8954 48.8472V46.9137L52.3454 48.6438C52.6508 48.6884 52.9298 48.8418 53.1311 49.0758C53.3324 49.3098 53.4424 49.6087 53.4409 49.9173C53.4396 50.2267 53.3275 50.5253 53.1251 50.7592C52.9226 50.9931 52.6431 51.1467 52.3371 51.1923L47.778 51.8502V51.3502C47.778 51.1513 47.699 50.9605 47.5583 50.8199C47.4177 50.6792 47.2269 50.6002 47.028 50.6002C46.8291 50.6002 46.6383 50.6792 46.4977 50.8199C46.357 50.9605 46.278 51.1513 46.278 51.3502V52.0679L34.4816 53.7723V51.4723C34.4816 51.2734 34.4026 51.0826 34.262 50.942C34.1213 50.8013 33.9305 50.7223 33.7316 50.7223C33.5327 50.7223 33.3419 50.8013 33.2013 50.942C33.0606 51.0826 32.9816 51.2734 32.9816 51.4723V53.9888L17.1956 56.2693V52.2653C17.1956 52.0664 17.1166 51.8756 16.9759 51.735C16.8353 51.5943 16.6445 51.5153 16.4456 51.5153C16.2467 51.5153 16.0559 51.5943 15.9153 51.735C15.7746 51.8756 15.6956 52.0664 15.6956 52.2653V56.2297C14.8013 56.088 13.9451 55.7658 13.1792 55.2828C12.4133 54.7997 11.7537 54.1659 11.2405 53.4198C11.6122 52.8117 11.8911 52.1516 12.0681 51.4612C12.3905 50.1972 12.4939 48.2811 11.2655 46.1528ZM4.94674 54.3098C4.78288 54.3757 4.59961 54.374 4.43699 54.3051C4.27436 54.2363 4.14561 54.1058 4.07887 53.9423C4.04624 53.8621 4.02988 53.7762 4.03074 53.6896C4.0316 53.603 4.04966 53.5174 4.08387 53.4378C4.11814 53.3571 4.16815 53.284 4.23096 53.2228C4.29378 53.1617 4.36815 53.1136 4.44974 53.0814L7.47474 51.8593L8.86224 51.8343C8.93712 52.1048 9.02608 52.3712 9.12874 52.6325L4.94674 54.3098ZM4.07887 45.6252C4.14561 45.4617 4.27434 45.3313 4.43694 45.2625C4.59953 45.1936 4.78277 45.1919 4.94662 45.2577L9.14237 46.9408C9.03565 47.2069 8.94327 47.4786 8.86562 47.7546L7.40199 47.7252L4.44799 46.4858C4.36713 46.4537 4.2934 46.4059 4.23105 46.3452C4.1687 46.2846 4.11894 46.2122 4.08465 46.1322C4.05035 46.0522 4.03218 45.9663 4.03119 45.8793C4.0302 45.7923 4.0464 45.7059 4.07887 45.6252ZM2.50049 49.1242L10.7589 49.2942C10.7908 49.6289 10.7903 49.9659 10.7575 50.3004L2.50137 50.4481C2.33053 50.4411 2.16898 50.3684 2.05051 50.2451C1.93205 50.1219 1.86583 49.9575 1.86572 49.7866C1.86561 49.6156 1.9316 49.4512 2.04991 49.3277C2.16821 49.2043 2.32966 49.1314 2.50049 49.1242Z" fill="#161915"/>
</svg>
