<svg width="40" height="40" viewBox="0 0 40 40" fill="none" xmlns="http://www.w3.org/2000/svg">
  <!-- Background circle -->
  <circle cx="20" cy="20" r="18" fill="#34BF58" stroke="white" stroke-width="2"/>

  <!-- Locker icon -->
  <g transform="translate(12, 10)">
    <!-- Main locker body -->
    <rect x="0" y="0" width="16" height="20" rx="1" fill="white"/>

    <!-- Compartments -->
    <rect x="1" y="1" width="6.5" height="6" rx="0.5" fill="#34BF58" opacity="0.3"/>
    <rect x="8.5" y="1" width="6.5" height="6" rx="0.5" fill="#34BF58" opacity="0.3"/>
    <rect x="1" y="7.5" width="6.5" height="6" rx="0.5" fill="#34BF58" opacity="0.3"/>
    <rect x="8.5" y="7.5" width="6.5" height="6" rx="0.5" fill="#34BF58" opacity="0.3"/>
    <rect x="1" y="14" width="6.5" height="5" rx="0.5" fill="#34BF58" opacity="0.3"/>
    <rect x="8.5" y="14" width="6.5" height="5" rx="0.5" fill="#34BF58" opacity="0.3"/>

    <!-- Handles/dots -->
    <circle cx="6" cy="4" r="0.8" fill="white"/>
    <circle cx="11" cy="4" r="0.8" fill="white"/>
    <circle cx="6" cy="10.5" r="0.8" fill="white"/>
    <circle cx="11" cy="10.5" r="0.8" fill="white"/>
    <circle cx="6" cy="16.5" r="0.8" fill="white"/>
    <circle cx="11" cy="16.5" r="0.8" fill="white"/>
  </g>
</svg>
